<ttFont>
<head>
    <!-- Most of this table will be recalculated by the compiler -->
    <tableVersion value="1.0"/>
    <fontRevision value="2.004"/>
    <checkSumAdjustment value="0xd4a8b85b"/>
    <magicNumber value="0x5f0f3cf5"/>
    <flags value="00000000 00000011"/>
    <unitsPerEm value="1000"/>
    <created value="Thu Oct  8 10:00:11 2009"/>
    <modified value="Thu Oct  8 10:00:11 2009"/>
    <xMin value="-486"/>
    <yMin value="-314"/>
    <xMax value="1548"/>
    <yMax value="1154"/>
    <macStyle value="00000000 00000010"/>
    <lowestRecPPEM value="3"/>
    <fontDirectionHint value="2"/>
    <indexToLocFormat value="0"/>
    <glyphDataFormat value="0"/>
  </head>
          <CharString index="0">
            hstemhm
            hintmask 11100000
            -107 callgsubr
            return
          </CharString>
          <CharString index="1">
            487 219 rmoveto
            9 46 10 67 -27 57 rrcurveto
            51 -25 -56 19 -49 hhcurveto
            -122 -117 -107 42 callsubr
            -128 -27 77 -107 132 hhcurveto
            58 63 17 31 58 hvcurveto
            9 71 rlineto
            -40 -64 -66 -13 -43 hhcurveto
            -87 -51 71 92 17 hvcurveto
            279 60 rmoveto
            -260 hlineto
            80 40 67 34 50 hhcurveto
            44 60 -21 -93 -1 hvcurveto
            return
          </CharString>
          <CharString index="2">
            547 219 rmoveto
            132 28 -82 108 -130 hhcurveto
            -130 -129 -109 -131 -27 hvcurveto
            -127 -27 84 -102 129 hhcurveto
            130 127 102 127 27 hvcurveto
            -85 11 rmoveto
            -114 -24 -83 -57 -77 hhcurveto
            -79 -57 58 113 24 hvcurveto
            113 24 85 50 74 hhcurveto
            75 61 -52 -111 -23 hvcurveto
            return
          </CharString>
          <CharString index="3">
            hintmask 11100000
            -106 callsubr
            return
          </CharString>
          <CharString index="4">
            rmoveto
            2 68 rlineto
            -22 -67 -1 -29 -82 hvcurveto
            -2 -1 rlineto
            24 -31 -34 7 -29 hhcurveto
            -98 -89 -77 -86 -18 hvcurveto
            -8 -35 5 -36 17 -28 rrcurveto
            hintmask 1100001100100100
            -18 -17 -21 -28 -8 -38 -8 -39 11 -25 6 -12 -62 -32 -21 -46 -5 -24 rrcurveto
            -76 -16 92 -60 130 hhcurveto
            131 117 60 76 16 hvcurveto
            141 30 -175 0 -43 hhcurveto
            hintmask 0100000010000000
            -93 hlineto
            -16 -43 0 52 11 hvcurveto
            hintmask 0010000101001010
            5 20 9 10 1 2 rrcurveto
            -22 30 34 -7 27 hhcurveto
            98 89 77 86 19 hvcurveto
            6 32 -2 29 -13 27 rrcurveto
            -2 6 0 2 0 vvcurveto
            4 1 60 0 5 hhcurveto
            0 39 0 35 -4 vhcurveto
            -206 -95 rmoveto
            -78 -17 -55 -24 -43 hhcurveto
            hintmask 1001001010001000
            -54 -33 34 67 15 hvcurveto
            78 16 55 24 43 hhcurveto
            54 33 -34 -67 -14 hvcurveto
            18 -361 rmoveto
            -43 -9 -81 -30 -84 hhcurveto
            -84 -69 30 43 9 hvcurveto
            hintmask 0100000001000100
            5 1 13 59 81 hhcurveto
            96 hlineto
            23 118 0 -64 -14 hvcurveto
            return
          </CharString>
          <CharString index="5">
            681 234 rmoveto
            98 460 -35 callgsubr
            -98 -461 rlineto
            -134 -29 -103 -61 -86 hhcurveto
            -86 -71 62 132 28 hvcurveto
            99 462 -15 callgsubr
            -98 -460 rlineto
            -147 -32 104 -108 144 hhcurveto
            143 144 109 146 31 hvcurveto
            return
          </CharString>
          <CharString index="6">
            rmoveto
            4 0 callsubr
            rlineto
            -1 1 vlineto
            1 1 rlineto
            27 23 32 16 32 hhcurveto
            20 12 0 -7 9 hvcurveto
            7 -6 1 -12 callgsubr
            -7 -7 -8 -91 callgsubr
            4 23 19 -93 callsubr
          </CharString>
          <CharString index="7">
            465 hmoveto
            68 callsubr
            -87 hlineto
            -61 -290 rlineto
            -80 -17 -74 -25 -58 hhcurveto
            -74 -3 20 46 9 hvcurveto
            70 329 -35 callgsubr
            -71 -335 rlineto
            -89 -19 33 -30 70 hhcurveto
            41 90 8 48 70 hvcurveto
            -10 -46 rlineto
            return
          </CharString>
          <CharString index="8">
            hstemhm
            -104 callsubr
            return
          </CharString>
          <CharString index="9">
            -26 callsubr
            -71 -17 -66 -38 -54 hhcurveto
            -54 -50 39 70 13 hvcurveto
            -66 hlineto
            -112 -22 return
          </CharString>
          <CharString index="10">
            rmoveto
            -97 134 rlineto
            -60 hlineto
            -155 -134 rlineto
            59 hlineto
            118 97 76 -97 rlineto
            return
          </CharString>
          <CharString index="11">
            411 130 rmoveto
            3 18 7 39 -34 38 -30 33 -35 7 -46 9 -56 11 -45 9 10 44 rrcurveto
            57 12 73 0 15 hhcurveto
            57 41 -12 -26 45 hvcurveto
            28 71 rlineto
            28 -62 -49 3 -36 hhcurveto
            -25 -151 0 -133 -29 hvcurveto
            -10 -47 21 -26 10 -12 28 -35 40 -8 51 -10 45 -9 52 -10 -10 -48 rrcurveto
            -63 -14 -83 0 -14 hhcurveto
            -64 -55 23 28 -34 hvcurveto
            -30 -75 rlineto
            -17 31 55 -27 83 hhcurveto
            return
          </CharString>
          <CharString index="12">
            -18 -87 2 -2 rlineto
            24 hlineto
            -40 -29 rlineto
            32 -43 -53 18 -60 hhcurveto
            -90 -94 -41 -68 -74 hvcurveto
            -79 -72 -53 -94 -21 -96 -20 -95 13 -93 49 -70 rrcurveto
            -66 47 76 -41 90 hhcurveto
            90 92 41 66 75 hvcurveto
            79 70 53 93 20 95 rrcurveto
            -96 17 rmoveto
            -17 -79 -36 -79 -61 -63 rrcurveto
            -53 -51 -67 -37 -66 hhcurveto
            -66 -53 37 53 -27 hvcurveto
            -35 63 -2 79 17 79 15 73 36 73 59 56 rrcurveto
            51 51 66 32 65 hhcurveto
            65 54 -32 -51 29 hvcurveto
            35 -56 4 -73 -15 -73 rrcurveto
            return
          </CharString>
          <CharString index="13">
            7 -43 rlineto
            -1 1 vlineto
            1 1 rlineto
            27 23 32 16 32 hhcurveto
            20 12 0 -7 9 hvcurveto
            return
          </CharString>
          <CharString index="14">
            11 37 18 rlinecurve
            9 5 5 2 6 3 20 11 15 19 5 21 rrcurveto
            endchar
          </CharString>
          <CharString index="15">
            -81 callsubr
            hintmask 00110000
            return
          </CharString>
          <CharString index="16">
            1135 694 rmoveto
            -78 hlineto
            -164 -315 -11 -21 -118 -224 -18 -54 rlinecurve
            -1 hlineto
            5 51 -22 235 -1 6 -31 322 rcurveline
            -84 hlineto
            -157 -300 -18 -34 -112 -215 -21 -64 rlinecurve
            -1 hlineto
            7 61 -23 239 -1 11 -28 302 rcurveline
            -95 hlineto
            69 -37 callgsubr
            85 hlineto
            174 335 85 167 27 53 15 32 10 27 rlinecurve
            1 hlineto
            -4 -47 7 -82 6 -59 25 -273 rcurveline
            15 -153 rlineto
            92 hlineto
            return
          </CharString>
          <CharString index="17">
            rmoveto
            -111 hlineto
            -201 -122 rlineto
            89 hlineto
            endchar
          </CharString>
          <CharString index="18">
            rmoveto
            17 80 rlineto
            -81 hlineto
            -17 -81 rlineto
            25 hlineto
            -51 -115 rlineto
            40 hlineto
            endchar
          </CharString>
          <CharString index="19">
            22 -15 13 rrcurveto
            15 -19 -26 5 -33 hhcurveto
            -36 -38 -15 -27 return
          </CharString>
          <CharString index="20">
            rlineto
            87 hlineto
            52 243 rlineto
            66 14 44 79 77 hhcurveto
            103 -14 -70 -29 -7 hvcurveto
            -61 -289 rlineto
            return
          </CharString>
          <CharString index="21">
            rmoveto
            -27 167 -35 callgsubr
            48 -167 rlineto
            -111 hmoveto
            -27 167 -35 callgsubr
            48 91 callsubr
          </CharString>
          <CharString index="22">
            43 vstem
            768 347 rmoveto
            192 41 -122 155 -192 hhcurveto
            -192 -188 -155 -192 -41 hvcurveto
            -192 -41 122 -155 192 hhcurveto
            192 188 155 192 41 hvcurveto
            -43 hmoveto
            -168 -36 -165 -136 -168 hhcurveto
            -168 -107 136 168 36 hvcurveto
            168 35 165 136 168 hhcurveto
            168 107 -136 -168 -35 hvcurveto
            return
          </CharString>
          <CharString index="23">
            223 rmoveto
            131 28 -48 109 -97 hhcurveto
            -98 -63 -51 -29 -36 hvcurveto
            137 43 90 95 108 hhcurveto
            20 39 -2 -19 46 hvcurveto
            14 63 rlineto
            20 -50 -38 0 -19 hhcurveto
            -152 -162 -143 -211 -45 hvcurveto
            -271 -58 107 -73 101 hhcurveto
            81 50 38 32 37 hvcurveto
            79 68 16 71 7 35 rrcurveto
            -92 hmoveto
            -8 -38 -9 -42 -36 -42 rrcurveto
            -36 -31 -34 -20 -46 hhcurveto
            -106 10 131 44 5 hvcurveto
            1 6 3 15 2 5 rrcurveto
            68 15 60 83 89 hhcurveto
            122 -29 -140 -34 -8 hvcurveto
            endchar
          </CharString>
          <CharString index="24">
            818 617 rmoveto
            15 70 rlineto
            -649 hlineto
            -15 -70 rlineto
            144 hlineto
            12 12 1 12 hhcurveto
            94 hlineto
            -131 -618 rlineto
            101 hlineto
            131 618 rlineto
            94 hlineto
            12 12 -1 12 hhcurveto
            return
          </CharString>
          <CharString index="25">
            -20 hstemhm
            146 100 -1 100 -82 100 229 87 0 91 -79 87 16 91 -73 91 -88 87 hintmask 0000000000010000
            43 callsubr
            hintmask 0010000000001000
            -1 2 -35 callgsubr
            hintmask 0000000000010000
            -3 -2 rlineto
            hintmask 0000000010100000
            -18 -87 2 -2 rlineto
            24 hlineto
            -50 -34 rlineto
            hintmask 1000101101000000
            -60 callgsubr
            hintmask 0000010000000000
            99 463 rlineto
            -100 hlineto
            hintmask 1000101010100000
            -66 callsubr
            hintmask 0101000000000000
            return
          </CharString>
          <CharString index="26">
            hstemhm
            177 121 callgsubr
            hintmask 11001100
            -100 callsubr
            return
          </CharString>
          <CharString index="27">
            428 380 rmoveto
            15 74 -84 -1 -69 -41 -52 -53 rlinecurve
            20 92 rlineto
            -77 hlineto
            -96 -451 rlineto
            84 hlineto
            45 213 23 108 103 58 88 1 rlinecurve
            return
          </CharString>
          <CharString index="28">
            18 87 rlineto
            2 -88 vlineto
            -2 -2 rlineto
            hintmask 1000101100000000
            -18 -87 rlineto
            -2 24 vlineto
            -49 -34 7 34 rlineto
            -86 hlineto
            -63 -298 rlineto
            -56 -12 -64 -41 -64 hhcurveto
            -34 -20 1 11 -14 hvcurveto
            -12 9 -1 17 5 22 rrcurveto
            hintmask 0000010000000000
            71 335 rlineto
            -86 hlineto
            hintmask 1000100100000000
            -71 -335 -8 -38 0 -30 15 -22 rlinecurve
            -21 14 27 -8 34 hhcurveto
            76 74 19 37 52 hvcurveto
            -10 -46 rlineto
            83 hlineto
            78 367 rlineto
            return
          </CharString>
          <CharString index="29">
            839 344 rmoveto
            34 160 -73 101 -36 32 72 88 rcurveline
            -50 36 -71 -86 rlineto
            13 -21 -53 27 -76 hhcurveto
            -196 -194 -167 -204 -43 hvcurveto
            -32 -150 64 -97 43 -41 -71 -87 rcurveline
            51 -36 70 85 rlineto
            -12 21 51 -27 79 hhcurveto
            195 193 162 203 43 hvcurveto
            -173 272 rmoveto
            -406 -496 -7 8 -57 74 30 142 rlinecurve
            192 41 148 113 135 hhcurveto
            57 41 -20 -13 18 hvcurveto
            79 -272 rmoveto
            -191 -40 -149 -108 -133 hhcurveto
            -30 -47 6 27 -39 hvcurveto
            405 494 38 -50 16 -79 -21 -99 rlinecurve
            return
          </CharString>
          <CharString index="30">
            -13 callsubr
            -86 -56 -50 -21 -25 hvcurveto
            67 311 rlineto
            -84 hlineto
            -148 -694 -87 callsubr
            return
          </CharString>
          <CharString index="31">
            hlineto
            -148 -37 callgsubr
            return
          </CharString>
          <CharString index="32">
            -97 callsubr
            endchar
          </CharString>
          <CharString index="33">
            rmoveto
            15 70 rlineto
            -382 hlineto
            -15 -70 rlineto
            endchar
          </CharString>
          <CharString index="34">
            463 -47 callsubr
            -84 hlineto
            -63 -293 rlineto
            47 -54 -64 6 -29 hhcurveto
            -105 -102 -105 42 callsubr
            -127 -27 57 -105 103 hhcurveto
            62 64 28 34 45 hvcurveto
            -11 -52 rlineto
            26 124 rmoveto
            -41 -33 -44 -27 -48 hhcurveto
            -70 -62 49 116 25 hvcurveto
            125 27 93 42 68 hhcurveto
            40 31 -17 -34 19 hvcurveto
            return
          </CharString>
          <CharString index="35">
            198 hmoveto
            148 694 -57 callsubr
            return
          </CharString>
          <CharString index="36">
            595 hmoveto
            15 71 rlineto
            -100 hlineto
            -306 -2 523 581 10 44 rlineto
            -515 hlineto
            -15 -67 rlineto
            209 hlineto
            14 12 1 14 hhcurveto
            137 hlineto
            -524 -582 -10 -46 rlineto
            return
          </CharString>
          <CharString index="37">
            783 219 rmoveto
            8 39 13 71 -26 58 rrcurveto
            56 -24 -53 16 -43 hhcurveto
            -89 -66 -56 -19 -23 hvcurveto
            33 -15 -38 42 -80 hhcurveto
            -62 -53 -14 -29 -62 hvcurveto
            -9 -73 rlineto
            19 32 57 33 83 hhcurveto
            10 38 0 -42 17 hvcurveto
            12 -26 -3 -14 -14 -64 -184 -5 -118 -46 -17 -80 rrcurveto
            -25 -5 -7 -103 108 hhcurveto
            28 152 0 73 67 hvcurveto
            -23 20 45 -50 92 hhcurveto
            73 62 30 18 30 hvcurveto
            9 71 rlineto
            -37 -53 -58 -16 -47 hhcurveto
            return
          </CharString>
          <CharString index="38">
            -51 -62 -46 -79 -18 hvcurveto
            66 hlineto
            return
          </CharString>
          <CharString index="39">
            510 -10 66 135 59 145 64 return
          </CharString>
          <CharString index="40">
            22 -55 callsubr
            return
          </CharString>
          <CharString index="41">
            -99 -463 -14 -67 15 -65 40 -46 rlinecurve
            -48 41 64 -26 71 hhcurveto
            69 72 26 48 60 hvcurveto
            58 47 43 64 14 67 82 386 rcurveline
            123 78 rlineto
            return
          </CharString>
          <CharString index="42">
            2 4 19 5 23 18 11 37 18 rlinecurve
            9 5 return
          </CharString>
          <CharString index="43">
            -1 59 -24 -9 -24 -6 -22 1 rlinecurve
            -28 2 -22 6 5 30 return
          </CharString>
          <CharString index="44">
            149 rmoveto
            116 545 rlineto
            -98 hlineto
            -115 -541 rlineto
            -21 -5 -18 -86 -122 hhcurveto
            -71 -36 36 21 -15 hvcurveto
            -33 -82 rlineto
            -26 49 63 -16 62 hhcurveto
            106 92 54 116 25 hvcurveto
            return
          </CharString>
          <CharString index="45">
            51 62 46 79 18 hvcurveto
            endchar
          </CharString>
          <CharString index="46">
            -11 callsubr
            288 -36 callgsubr
            return
          </CharString>
          <CharString index="47">
            116 24 -49 86 -78 hhcurveto
            -75 -91 -83 -118 89 callsubr
            58 -80 73 hhcurveto
            79 86 88 113 24 hvcurveto
            return
          </CharString>
          <CharString index="48">
            708 21 -21 198 59 437 return
          </CharString>
          <CharString index="49">
            -32 -8 -44 callsubr
            return
          </CharString>
          <CharString index="50">
            rlineto
            -52 callgsubr
            return
          </CharString>
          <CharString index="51">
            -11 callsubr
            258 -36 callgsubr
            return
          </CharString>
          <CharString index="52">
            101 -15 callgsubr
            return
          </CharString>
          <CharString index="53">
            hstemhm
            hintmask 01100000
            422 -187 rmoveto
            -64 callsubr
            8 44 52 34 52 26 rrcurveto
            18 hlineto
            35 callsubr
            102 22 -63 69 -99 hhcurveto
            -63 -51 -13 -30 -63 hvcurveto
            -9 -73 rlineto
            22 38 55 30 79 hhcurveto
            44 39 -33 -75 -16 hvcurveto
            -8 -40 -150 -5 -152 -31 -20 -93 rlinecurve
            hintmask 10000000
            -50 -11 18 -78 88 hhcurveto
            43 81 9 39 61 hvcurveto
            hintmask 01000000
            -8 -38 97 callgsubr
            33 26 6 19 44 hvcurveto
            -43 329 rmoveto
            -4 -20 -6 -26 -39 -21 rrcurveto
            -18 -36 -39 -1 -11 hhcurveto
            -55 -37 25 38 8 hvcurveto
            14 64 170 6 46 2 rrcurveto
            return
          </CharString>
          <CharString index="54">
            73 -70 90 hhcurveto
            91 102 70 112 return
          </CharString>
          <CharString index="55">
            637 0 78 248 66 229 70 return
          </CharString>
          <CharString index="56">
            767 0 77 572 66 hstem
            157 101 446 101 vstem
            719 hmoveto
            16 77 rlineto
            -91 57 callsubr
            -57 hlineto
            24 44 24 35 62 72 67 80 59 71 18 84 rrcurveto
            136 29 -114 117 -185 hhcurveto
            -185 -164 -118 -135 -29 hvcurveto
            -18 -85 30 -72 34 -82 31 -72 9 -33 4 -42 rrcurveto
            -57 hlineto
            -12 -12 1 -12 hhcurveto
            -91 hlineto
            -16 -77 rlineto
            262 hlineto
            16 81 -16 63 -21 75 -27 89 -20 72 17 81 rrcurveto
            108 23 112 80 128 hhcurveto
            129 77 -81 -107 -23 hvcurveto
            -17 -81 -53 -75 -56 -77 -55 -79 -47 -65 -19 -84 rrcurveto
            endchar
          </CharString>
          <CharString index="57">
            rmoveto
            -72 callgsubr
            return
          </CharString>
          <CharString index="58">
            -43 -8 22 -42 67 hhcurveto
            33 26 6 19 44 hvcurveto
            return
          </CharString>
          <CharString index="59">
            -26 callsubr
            hintmask 00010000
            -64 callgsubr
            hintmask 00001000
            19 -26 -19 15 -28 hhcurveto
            hintmask 00010000
            -69 callsubr
            hintmask 00001000
            11 callgsubr
            hintmask 00010000
            -22 callsubr
            hintmask 00001000
            -62 callsubr
          </CharString>
          <CharString index="60">
            hmoveto
            -7 callgsubr
            return
          </CharString>
          <CharString index="61">
            hstemhm
            hintmask 01101000
            487 219 rmoveto
            9 46 10 67 -27 57 rrcurveto
            51 -25 -56 19 -49 hhcurveto
            -122 -117 -107 42 callsubr
            -128 -27 77 -107 132 hhcurveto
            -50 -29 -38 -42 -7 -46 rrcurveto
            hintmask 10000000
            -43 -8 22 -42 67 hhcurveto
            hintmask 01000000
            33 26 6 19 44 hvcurveto
            -1 59 rlineto
            hintmask 10110100
            -24 -9 -24 -6 -22 1 61 callsubr
            54 36 51 26 32 8 32 12 29 16 9 71 rcurveline
            -40 -64 -66 -13 -43 hhcurveto
            -87 -51 71 92 17 hvcurveto
            279 60 rmoveto
            -260 hlineto
            80 40 67 34 50 hhcurveto
            44 60 -21 -93 -1 hvcurveto
            return
          </CharString>
          <CharString index="62">
            141 rmoveto
            273 58 -106 69 -96 hhcurveto
            -89 -50 -42 -29 -35 hvcurveto
            -78 -65 -17 -69 -8 -39 rrcurveto
            -129 -28 47 -111 98 hhcurveto
            113 78 75 6 6 hvcurveto
            -159 -48 -93 -70 -82 hhcurveto
            -52 -28 19 19 -19 hvcurveto
            -46 -58 rlineto
            -36 41 43 -10 47 hhcurveto
            140 158 141 215 46 hvcurveto
            -80 77 rmoveto
            -74 -15 -62 -79 -87 hhcurveto
            hintmask 00001000
            -38 -28 11 41 -17 hvcurveto
            hintmask 00110100
            -18 39 6 38 10 45 8 39 10 45 40 44 rrcurveto
            30 27 35 24 50 hhcurveto
            97 -3 -117 -64 -11 hvcurveto
            -6 -2 -10 -2 -6 vhcurveto
            endchar
          </CharString>
          <CharString index="63">
            -8 callsubr
            -21 17 8 return
          </CharString>
          <CharString index="64">
            335 rmoveto
            273 58 -106 69 -96 hhcurveto
            -89 -50 -42 -29 -35 hvcurveto
            -78 -65 -17 -69 -8 -39 rrcurveto
            -129 -27 46 -111 98 hhcurveto
            113 78 75 6 6 hvcurveto
            -159 -48 -92 -70 -82 hhcurveto
            -52 -28 19 19 -19 hvcurveto
            -47 -58 rlineto
            -36 42 43 -10 47 hhcurveto
            140 158 141 215 45 hvcurveto
            -79 77 rmoveto
            -74 -16 -62 -79 -87 hhcurveto
            -38 -28 11 41 -17 hvcurveto
            -18 39 6 38 10 45 8 39 10 45 40 44 rrcurveto
            30 28 35 24 50 hhcurveto
            97 -4 -117 -64 -11 hvcurveto
            -6 -2 -10 -1 -6 vhcurveto
            endchar
          </CharString>
          <CharString index="65">
            rmoveto
            112 22 -73 70 -90 hhcurveto
            -91 -102 -70 -112 -26 hvcurveto
            66 hlineto
            71 17 66 38 54 hhcurveto
            54 50 -39 -70 -13 hvcurveto
            endchar
          </CharString>
          <CharString index="66">
            -90 rlineto
            28 hlineto
            -56 -128 rlineto
            45 hlineto
            return
          </CharString>
          <CharString index="67">
            547 219 rmoveto
            132 28 -82 108 -130 hhcurveto
            -130 -129 -109 -131 -27 hvcurveto
            -26 -122 77 -99 119 -7 -48 -29 -41 -43 -7 -46 6 callsubr
            8 43 50 33 51 26 104 27 92 88 23 106 rrcurveto
            -85 11 rmoveto
            -114 -24 -83 -57 -77 hhcurveto
            -79 -57 58 113 24 hvcurveto
            113 24 85 50 74 hhcurveto
            75 61 -52 -111 -23 hvcurveto
            return
          </CharString>
          <CharString index="68">
            148 694 return
          </CharString>
          <CharString index="69">
            17 27 28 hhcurveto
            25 return
          </CharString>
          <CharString index="70">
            168 hmoveto
            104 callsubr
            return
          </CharString>
          <CharString index="71">
            915 0 78 141 59 50 66 230 70 hstemhm
            478 100 0 100 hintmask 10110100
            870 hmoveto
            17 78 rlineto
            -73 hlineto
            -219 -2 rlineto
            -34 hlineto
            54 252 rlineto
            280 hlineto
            14 66 rlineto
            -280 hlineto
            49 231 rlineto
            112 hlineto
            12 12 -1 12 hhcurveto
            162 hlineto
            15 70 rlineto
            hintmask 11011000
            -525 hlineto
            -448 -37 callgsubr
            83 hlineto
            142 219 rlineto
            237 hlineto
            -47 -219 rlineto
            59 278 rmoveto
            -212 hlineto
            225 347 rlineto
            61 hlineto
            endchar
          </CharString>
          <CharString index="72">
            -20 -99 callsubr
            hintmask 00011000
            58 callsubr
            return
          </CharString>
          <CharString index="73">
            -10 66 163 60 114 66 return
          </CharString>
          <CharString index="74">
            531 -10 69 334 66 return
          </CharString>
          <CharString index="75">
            -21 callsubr
            -22 77 callgsubr
            return
          </CharString>
          <CharString index="76">
            hvcurveto
            hintmask 00000100
            20 callgsubr
            hintmask 00001000
            -51 -61 -46 -79 -18 hvcurveto
            66 hlineto
            hintmask 00000100
            32 8 16 27 28 hhcurveto
            25 22 31 callgsubr
            17 hvcurveto
            endchar
          </CharString>
          <CharString index="77">
            -12 rmoveto
            18 82 -52 66 -74 23 84 39 53 67 14 65 rrcurveto
            85 18 -72 68 -107 hhcurveto
            -88 -83 -46 -60 -55 hvcurveto
            29 -58 rlineto
            80 58 76 22 48 hhcurveto
            59 37 -34 -57 -12 hvcurveto
            -11 -53 -50 -65 -79 -13 -5 -1 -4 0 -67 -5 -14 -66 rcurveline
            78 hlineto
            95 19 -75 -63 -13 hvcurveto
            -78 -17 -61 -60 -78 hhcurveto
            -71 -73 34 64 -37 hvcurveto
            -27 -65 rlineto
            -65 45 73 -34 78 hhcurveto
            131 115 98 105 22 hvcurveto
            endchar
          </CharString>
          <CharString index="78">
            -20 hstemhm
            hintmask 01000000
            642 -187 rmoveto
            -1 59 rlineto
            hintmask 10111000
            -24 -9 -24 -6 -22 1 61 callsubr
            54 34 52 26 rrcurveto
            37 hlineto
            -127 694 rlineto
            -97 hlineto
            -423 -37 callgsubr
            82 hlineto
            120 198 rlineto
            304 hlineto
            36 -198 97 callgsubr
            hintmask 01010000
            33 26 6 19 44 hvcurveto
            -118 444 rmoveto
            -254 hlineto
            204 361 rlineto
            return
          </CharString>
          <CharString index="79">
            -251 -21 115 81 return
          </CharString>
          <CharString index="80">
            -97 callsubr
            146 314 -26 callsubr
            hintmask 00001000
            105 callgsubr
            hintmask 00000100
            20 callgsubr
            hintmask 00001000
            -69 callsubr
            hintmask 00000100
            32 8 17 27 28 hhcurveto
            25 21 31 callgsubr
            18 hvcurveto
            endchar
          </CharString>
          <CharString index="81">
            rmoveto
            -66 hlineto
            return
          </CharString>
          <CharString index="82">
            21 -21 callgsubr
            return
          </CharString>
          <CharString index="83">
            472 -10 66 114 60 163 66 hstem
            488 224 rmoveto
            128 27 -77 107 -132 hhcurveto
            -58 -64 -17 -31 -58 hvcurveto
            -9 -71 rlineto
            40 65 66 13 43 hhcurveto
            87 50 -71 -92 -16 hvcurveto
            -328 hlineto
            -10 -46 -9 -67 27 -57 rrcurveto
            -51 25 56 -19 49 hhcurveto
            122 117 107 127 27 hvcurveto
            -96 -54 rmoveto
            -80 -40 -66 -34 -50 hhcurveto
            -44 -61 21 93 1 hvcurveto
            endchar
          </CharString>
          <CharString index="84">
            -12 -2 -8 -6 -7 -9 -91 callgsubr
            5 23 18 -93 callsubr
          </CharString>
          <CharString index="85">
            -19 26 20 -15 28 hhcurveto
            return
          </CharString>
          <CharString index="86">
            -27 -28 hhcurveto
            -25 return
          </CharString>
          <CharString index="87">
            -20 hstemhm
            225 -10 callgsubr
            87 -10 callgsubr
            hintmask 10001000
            316 485 -50 callsubr
            hintmask 10010010
            -61 callsubr
            hintmask 10000100
            -11 callsubr
            hintmask 01100000
            return
          </CharString>
          <CharString index="88">
            203 rmoveto
            124 27 -71 99 -110 hhcurveto
            -43 -42 -15 -25 -35 hvcurveto
            43 201 rlineto
            277 hlineto
            14 69 rlineto
            -357 hlineto
            -79 -374 rlineto
            73 hlineto
            54 35 53 24 45 hhcurveto
            41 56 -28 87 callgsubr
            -89 -29 -51 hhcurveto
            -66 -57 35 57 -22 hvcurveto
            -51 -60 rlineto
            -61 36 67 -37 79 hhcurveto
            132 124 102 122 26 hvcurveto
            endchar
          </CharString>
          <CharString index="89">
            hmoveto
            63 296 rlineto
            78 16 -6 80 -123 hhcurveto
            return
          </CharString>
          <CharString index="90">
            679 21 -21 285 62 288 59 hstem
            632 91 vstem
            723 491 rmoveto
            107 23 -85 96 -145 hhcurveto
            -270 -76 callsubr
            101 hlineto
            61 285 rlineto
            176 hlineto
            129 134 91 115 24 hvcurveto
            -91 hmoveto
            -82 -17 -81 -62 -117 hhcurveto
            -147 hlineto
            35 callsubr
            147 hlineto
            113 59 -60 -84 -18 hvcurveto
            endchar
          </CharString>
          <CharString index="91">
            531 -205 62 137 78 55 62 203 62 return
          </CharString>
          <CharString index="92">
            110 23 83 63 82 hhcurveto
            32 22 -11 0 hvcurveto
            60 -162 rmoveto
            -112 -24 -84 -52 -78 hhcurveto
            -7 -22 0 10 -24 hvcurveto
            225 277 22 -37 1 -44 -9 -42 rlinecurve
            return
          </CharString>
          <CharString index="93">
            393 309 rmoveto
            8 38 rlineto
            -96 hlineto
            78 368 rlineto
            -16 hlineto
            -55 -36 -59 -2 -43 -1 -8 -38 rcurveline
            28 1 36 1 39 12 -65 -305 rcurveline
            -95 hlineto
            -8 -38 rlineto
            return
          </CharString>
          <CharString index="94">
            465 -18 callsubr
            return
          </CharString>
          <CharString index="95">
            hmoveto
            16 77 rlineto
            -344 hlineto
            199 85 74 31 104 39 19 86 rlinecurve
            117 24 -110 48 -101 hhcurveto
            -80 -80 -25 -70 -65 hvcurveto
            -2 -3 -4 -3 -1 -4 47 -49 rcurveline
            62 42 55 22 58 hhcurveto
            51 89 -17 -76 -16 hvcurveto
            -20 -92 -102 -40 -93 -40 -152 -66 rcurveline
            -14 -7 -11 -13 -3 -13 -10 -49 rcurveline
            endchar
          </CharString>
          <CharString index="96">
            -19 -91 rlineto
            return
          </CharString>
          <CharString index="97">
            -4 callsubr
            -343 403 rmoveto
            return
          </CharString>
          <CharString index="98">
            hstemhm
            -5 callsubr
            return
          </CharString>
          <CharString index="99">
            -17 -21 callsubr
            return
          </CharString>
          <CharString index="100">
            -86 -26 callsubr
            hintmask 10000000
            -64 callgsubr
            hintmask 01000000
            19 -25 -20 -28 callgsubr
            9 hvcurveto
            hintmask 10000000
            -22 callsubr
            hintmask 01000000
            -62 callsubr
          </CharString>
          <CharString index="101">
            258 309 -98 callsubr
            -53 callsubr
            26 hvcurveto
            return
          </CharString>
          <CharString index="102">
            245 101 248 87 11 87 return
          </CharString>
          <CharString index="103">
            -67 callgsubr
            -364 hmoveto
            -67 callgsubr
            return
          </CharString>
          <CharString index="104">
            197 928 rlineto
            14 3 4 22 -23 hhcurveto
            -23 -4 -22 -14 -3 hvcurveto
            -197 -928 rlineto
            -14 -3 -5 -22 23 hhcurveto
            23 5 22 14 3 hvcurveto
            return
          </CharString>
          <CharString index="105">
            -41 callsubr
            endchar
          </CharString>
          <CharString index="106">
            354 191 63 hstemhm
            53 282 -269 282 hintmask 10100000
            335 191 109 callgsubr
            -282 hlineto
            hintmask 11000000
            -13 -63 rlineto
            endchar
          </CharString>
          <CharString index="107">
            23 -6 5 callsubr
            return
          </CharString>
          <CharString index="108">
            -60 callsubr
            -364 hmoveto
            -60 callsubr
            return
          </CharString>
          <CharString index="109">
            rmoveto
            37 callsubr
            -635 17 callsubr
            return
          </CharString>
          <CharString index="110">
            rmoveto
            94 18 -147 25 -82 hhcurveto
            -83 -154 -28 -91 -21 hvcurveto
            87 hlineto
            44 16 96 5 45 hhcurveto
            47 93 -6 -43 -2 hvcurveto
            endchar
          </CharString>
          <CharString index="111">
            63 callgsubr
            114 42 callgsubr
            85 84 hintmask 11001000
            -80 callsubr
            hintmask 00110000
            return
          </CharString>
          <CharString index="112">
            -88 callsubr
            -31 hvcurveto
            -1 vlineto
            7 -43 return
          </CharString>
          <CharString index="113">
            rrcurveto
            -49 callsubr
            -64 callsubr
            return
          </CharString>
          <CharString index="114">
            hvcurveto
            hintmask 00100000
            20 callgsubr
            hintmask 01000000
            -51 -61 -46 -79 -18 hvcurveto
            66 hlineto
            hintmask 00100000
            32 8 16 27 28 hhcurveto
            25 22 -17 -8 9 hvcurveto
            hintmask 01000000
            -22 callsubr
            hintmask 00100000
            51 62 46 79 17 hvcurveto
            endchar
          </CharString>
          <CharString index="115">
            605 17 callgsubr
            -20 -41 callsubr
            return
          </CharString>
          <CharString index="116">
            rmoveto
            15 70 rlineto
            -204 hlineto
            -15 -70 rlineto
            128 -51 0 127 hhcurveto
            endchar
          </CharString>
          <CharString index="117">
            hmoveto
            13 63 rlineto
            -133 hlineto
            90 420 rlineto
            -11 hlineto
            -14 -11 -7 -6 -13 hvcurveto
            -28 -62 -66 -3 -61 hhcurveto
            -13 -63 rlineto
            46 47 2 12 48 hvcurveto
            hintmask 10010000
            -70 -327 rlineto
            -133 74 callsubr
            endchar
          </CharString>
          <CharString index="118">
            565 -50 callsubr
            return
          </CharString>
          <CharString index="119">
            534 65 callsubr
            return
          </CharString>
          <CharString index="120">
            295 72 callsubr
            203 58 callgsubr
            hintmask 11010000
            19 90 rlineto
            -28 hlineto
            endchar
          </CharString>
          <CharString index="121">
            253 35 callgsubr
            return
          </CharString>
          <CharString index="122">
            392 rmoveto
            15 70 rlineto
            -442 hlineto
            -16 -77 rlineto
            365 hlineto
            -184 -148 -141 -209 -49 -232 rrcurveto
            94 hlineto
            62 292 186 210 110 94 rrcurveto
            endchar
          </CharString>
          <CharString index="123">
            -143 272 214 172 rlineto
            -97 hlineto
            -258 -207 rlineto
            return
          </CharString>
          <CharString index="124">
            hlineto
            18 callgsubr
            return
          </CharString>
          <CharString index="125">
            27 callgsubr
            hstemhm
            return
          </CharString>
          <CharString index="126">
            hlineto
            14 22 0 23 5 hvcurveto
            return
          </CharString>
          <CharString index="127">
            -122 -26 -92 -45 -70 hhcurveto
            -37 -31 17 45 -19 hvcurveto
            42 197 3 16 3 12 40 23 rlinecurve
            9 17 29 13 34 hhcurveto
            67 66 -45 -120 -26 hvcurveto
            endchar
          </CharString>
          <CharString index="128">
            688 21 47 callsubr
            return
          </CharString>
          <CharString index="129">
            28 callsubr
            -19 -90 rlineto
            return
          </CharString>
          <CharString index="130">
            -4 29 4 31 6 30 rrcurveto
            127 27 54 9 15 hhcurveto
            43 16 -64 -71 -15 hvcurveto
            return
          </CharString>
          <CharString index="131">
            -56 -28 -50 -48 -8 -51 return
          </CharString>
          <CharString index="132">
            30 callgsubr
            endchar
          </CharString>
          <CharString index="133">
            hmoveto
            -45 219 138 219 rlineto
            -65 hlineto
            -159 -219 66 -219 rlineto
            return
          </CharString>
          <CharString index="134">
            295 -25 callsubr
            return
          </CharString>
          <CharString index="135">
            19 90 rlineto
            -90 hlineto
            return
          </CharString>
          <CharString index="136">
            354 191 63 hstemhm
            77 282 -269 282 hintmask 10100000
            359 191 109 callgsubr
            -282 hlineto
            hintmask 11000000
            -13 -63 rlineto
            endchar
          </CharString>
          <CharString index="137">
            520 54 callgsubr
            49 -39 -70 -12 hvcurveto
            endchar
          </CharString>
          <CharString index="138">
            -47 callsubr
            -101 hlineto
            return
          </CharString>
          <CharString index="139">
            708 -10 34 callgsubr
            return
          </CharString>
          <CharString index="140">
            66 276 66 228 62 return
          </CharString>
          <CharString index="141">
            708 -25 callsubr
            return
          </CharString>
          <CharString index="142">
            61 288 rlineto
            return
          </CharString>
          <CharString index="143">
            -78 callgsubr
            10 hvcurveto
            return
          </CharString>
          <CharString index="144">
            23 5 -22 0 -14 hhcurveto
            return
          </CharString>
          <CharString index="145">
            rmoveto
            -60 callsubr
            return
          </CharString>
          <CharString index="146">
            81 381 rlineto
            123 94 callsubr
            -126 hlineto
            25 116 rlineto
            68 14 54 10 27 hhcurveto
            25 23 -6 -11 22 hvcurveto
            return
          </CharString>
          <CharString index="147">
            81 381 rlineto
            115 94 callsubr
            -118 hlineto
            25 115 rlineto
            72 15 70 7 28 hhcurveto
            24 26 -3 -14 32 hvcurveto
            return
          </CharString>
          <CharString index="148">
            767 -10 66 0 64 69 60 -30 60 0 64 50 66 -64 64 return
          </CharString>
          <CharString index="149">
            -127 -27 hvcurveto
            return
          </CharString>
          <CharString index="150">
            885 696 rmoveto
            18 87 rlineto
            return
          </CharString>
          <CharString index="151">
            283 -204 70 578 -20 return
          </CharString>
          <CharString index="152">
            rmoveto
            hintmask 00001000
            78 callsubr
            hintmask 00100000
            return
          </CharString>
          <CharString index="153">
            -55 hlineto
            -564 -654 rlineto
            55 hlineto
            return
          </CharString>
          <CharString index="154">
            -21 314 66 255 59 return
          </CharString>
          <CharString index="155">
            21 91 callgsubr
            return
          </CharString>
          <CharString index="156">
            -50 callsubr
            hintmask 00110010
            -56 callsubr
            hintmask 00100100
            -11 callsubr
            endchar
          </CharString>
          <CharString index="157">
            -50 callsubr
            hintmask 00011001
            -56 callsubr
            hintmask 00010010
            -11 callsubr
            endchar
          </CharString>
          <CharString index="158">
            rmoveto
            16 73 rlineto
            3 -11 -27 7 -33 hhcurveto
            -92 -84 -74 -98 -21 hvcurveto
            -19 -88 rlineto
            -77 74 callsubr
            77 hlineto
            return
          </CharString>
          <CharString index="159">
            -20 hstem
            54 callsubr
            return
          </CharString>
          <CharString index="160">
            -21 callgsubr
            hstem
            84 84 64 84 vstem
            -37 callsubr
            return
          </CharString>
          <CharString index="161">
            534 525 -79 callgsubr
            return
          </CharString>
          <CharString index="162">
            13 35 hhcurveto
            42 28 -20 -34 -7 hvcurveto
            -7 -32 -34 -39 -57 -8 -3 -1 -3 0 -49 -3 -8 -39 rcurveline
            return
          </CharString>
          <CharString index="163">
            52 -58 rcurveline
            52 48 100 -26 79 -20 rrcurveto
            -9 35 36 -7 37 hhcurveto
            87 78 79 90 19 hvcurveto
            endchar
          </CharString>
          <CharString index="164">
            hlineto
            -12 -12 -1 -12 hhcurveto
            return
          </CharString>
          <CharString index="165">
            66 246 -79 callgsubr
            return
          </CharString>
          <CharString index="166">
            4 375 -97 callsubr
            return
          </CharString>
          <CharString index="167">
            hlineto
            -18 callgsubr
            return
          </CharString>
          <CharString index="168">
            72 callgsubr
            44 return
          </CharString>
          <CharString index="169">
            549 -10 66 332 66 return
          </CharString>
          <CharString index="170">
            665 445 rmoveto
            1 vlineto
            return
          </CharString>
          <CharString index="171">
            649 0 71 556 67 return
          </CharString>
          <CharString index="172">
            735 -97 callsubr
            return
          </CharString>
          <CharString index="173">
            80 callsubr
            205 101 47 101 return
          </CharString>
          <CharString index="174">
            72 116 callgsubr
            return
          </CharString>
          <CharString index="175">
            94 444 rlineto
            return
          </CharString>
          <CharString index="176">
            531 -93 -21 104 66 337 66 0 66 return
          </CharString>
          <CharString index="177">
            826 -46 -21 46 66 604 66 46 -20 return
          </CharString>
          <CharString index="178">
            679 -10 69 576 70 return
          </CharString>
          <CharString index="179">
            476 90 128 -20 hstemhm
            return
          </CharString>
          <CharString index="180">
            462 0 67 313 64 return
          </CharString>
          <CharString index="181">
            hlineto
            -13 -63 rlineto
            return
          </CharString>
          <CharString index="182">
            rmoveto
            5 23 -7 -88 callsubr
            return
          </CharString>
          <CharString index="183">
            779 341 rmoveto
            196 42 -112 157 -179 hhcurveto
            -284 hlineto
            return
          </CharString>
          <CharString index="184">
            rlineto
            60 hlineto
            endchar
          </CharString>
          <CharString index="185">
            -67 callsubr
            hintmask 00010000
            -22 -101 rlineto
            return
          </CharString>
          <CharString index="186">
            hlineto
            27 127 rlineto
            return
          </CharString>
          <CharString index="187">
            97 101 47 101 return
          </CharString>
          <CharString index="188">
            99 callgsubr
            hintmask 10000000
            -40 callgsubr
          </CharString>
          <CharString index="189">
            78 48 -22 -34 42 hvcurveto
            36 90 rlineto
            30 -75 -63 5 -49 hhcurveto
            return
          </CharString>
          <CharString index="190">
            548 -10 59 486 -20 return
          </CharString>
          <CharString index="191">
            726 21 120 callgsubr
            return
          </CharString>
          <CharString index="192">
            66 148 66 356 62 return
          </CharString>
          <CharString index="193">
            253 -25 callsubr
            return
          </CharString>
          <CharString index="194">
            497 -21 128 90 hstem
            return
          </CharString>
          <CharString index="195">
            -25 callsubr
            hstem
            return
          </CharString>
          <CharString index="196">
            -25 hvcurveto
            -122 -26 return
          </CharString>
          <CharString index="197">
            -20 15 -28 hhcurveto
            return
          </CharString>
          <CharString index="198">
            -167 rlineto
            endchar
          </CharString>
          <CharString index="199">
            hstemhm
            277 14 callgsubr
            return
          </CharString>
          <CharString index="200">
            vstem
            632 35 rmoveto
            10 76 rlineto
            -48 -81 -46 -15 -84 hhcurveto
            return
          </CharString>
          <CharString index="201">
            hlineto
            13 63 rlineto
            return
          </CharString>
          <CharString index="202">
            rmoveto
            104 callsubr
            return
          </CharString>
          <CharString index="203">
            103 callgsubr
            61 return
          </CharString>
          <CharString index="204">
            -20 101 callsubr
            208 101 callgsubr
            return
          </CharString>
          <CharString index="205">
            rlineto
            -84 -76 callsubr
            return
          </CharString>
          <CharString index="206">
            -25 callsubr
            61 91 hstemhm
            return
          </CharString>
          <CharString index="207">
            -28 callsubr
            97 -21 return
          </CharString>
          <CharString index="208">
            hstemhm
            106 86 -15 86 return
          </CharString>
          <CharString index="209">
            -21 172 -20 return
          </CharString>
          <CharString index="210">
            rmoveto
            -85 hlineto
            -29 -46 -48 -85 -27 -48 rlineto
            65 hlineto
            return
          </CharString>
          <CharString index="211">
            148 694 98 callsubr
            return
          </CharString>
          <CharString index="212">
            hstemhm
            98 98 54 101 -79 101 -42 98 216 91 return
          </CharString>
          <CharString index="213">
            hlineto
            12 12 -1 12 hhcurveto
            endchar
          </CharString>
          <CharString index="214" raw="1">
            f78615fb 03060b  
          </CharString>
          <CharString index="215">
            132 94 519 94 return
          </CharString>
          <CharString index="216">
            282 429 rmoveto
            61 286 rlineto
            -86 hlineto
            return
          </CharString>
          <CharString index="217">
            0 69 -69 77 136 69 326 69 hstemhm
            return
          </CharString>
          <CharString index="218">
            -4 22 -7 rrcurveto
            -6 21 25 -6 18 hhcurveto
            41 return
          </CharString>
          <CharString index="219">
            28 28 157 160 8 36 rrcurveto
            endchar
          </CharString>
          <CharString index="220">
            -20 hstemhm
            261 101 -79 101 return
          </CharString>
          <CharString index="221">
            502 -21 67 648 -20 return
          </CharString>
          <CharString index="222">
            312 101 30 101 return
          </CharString>
          <CharString index="223">
            531 520 73 return
          </CharString>
          <CharString index="224">
            -246 -254 -9 -40 rlineto
            202 hlineto
            return
          </CharString>
          <CharString index="225">
            hstemhm
            66 callsubr
            return
          </CharString>
          <CharString index="226">
            47 -249 rlineto
            48 hlineto
            136 221 return
          </CharString>
          <CharString index="227">
            hlineto
            -27 -127 return
          </CharString>
          <CharString index="228">
            -21 122 -20 return
          </CharString>
        <CharString name=".notdef">
          280 endchar
        </CharString>
        <CharString name="A">
          -55 callgsubr
          hstem
          -101 callgsubr
          endchar
        </CharString>
        <CharString name="AE">
          -36 callsubr
        </CharString>
        <CharString name="AE.dup">
          -36 callsubr
        </CharString>
        <CharString name="AEacute">
          915 0 78 141 59 50 66 230 70 67 callsubr
          478 100 0 100 hintmask 10110001
          870 hmoveto
          17 78 rlineto
          -73 hlineto
          -219 -2 rlineto
          -34 hlineto
          54 252 rlineto
          280 hlineto
          14 66 rlineto
          -280 hlineto
          49 231 rlineto
          112 hlineto
          12 12 -1 12 hhcurveto
          162 hlineto
          15 70 rlineto
          hintmask 11010010
          -525 hlineto
          -448 -37 callgsubr
          83 hlineto
          142 219 rlineto
          237 hlineto
          -47 -219 rlineto
          59 278 rmoveto
          -212 hlineto
          225 347 rlineto
          61 hlineto
          hintmask 00001100
          254 242 -90 callsubr
        </CharString>
        <CharString name="Aacute">
          -55 callgsubr
          92 116 callgsubr
          -98 callgsubr
          hintmask 00011000
          255 249 -90 callsubr
        </CharString>
        <CharString name="Abreve">
          -55 callgsubr
          71 73 109 -20 hstemhm
          -98 callgsubr
          hintmask 00011000
          -6 callsubr
          endchar
        </CharString>
        <CharString name="Abreveacute">
          -55 callgsubr
          71 73 266 -20 hstemhm
          -98 callgsubr
          hintmask 00011000
          -6 callsubr
          -4 157 -90 callsubr
        </CharString>
        <CharString name="Abrevedotbelow">
          -55 callgsubr
          71 73 109 113 callsubr
          hintmask 11111000
          -101 callgsubr
          -6 callsubr
          hintmask 00000010
          -370 -1127 -73 callgsubr
          hintmask 00000100
          -40 callgsubr
        </CharString>
        <CharString name="Abrevegrave">
          -55 callgsubr
          71 73 109 -20 hstemhm
          -98 callgsubr
          hintmask 00011000
          -6 callsubr
          -30 35 -11 callgsubr
        </CharString>
        <CharString name="Abrevehookabove">
          -55 callgsubr
          71 73 124 73 139 -20 hstemhm
          -98 callgsubr
          hintmask 00011100
          -6 callsubr
          -44 149 -101 callsubr
        </CharString>
        <CharString name="Abrevetilde">
          -55 callgsubr
          71 73 164 68 callgsubr
          -98 callgsubr
          hintmask 00010100
          -6 callsubr
          34 180 -26 callsubr
          hintmask 00001000
          -53 callgsubr
          hintmask 00000100
          20 callgsubr
          hintmask 00001000
          100 callgsubr
          hintmask 00000100
          32 7 17 27 28 hhcurveto
          25 22 46 callgsubr
          61 46 79 18 hvcurveto
          endchar
        </CharString>
        <CharString name="Acaron">
          -55 callgsubr
          82 -21 134 -20 hstemhm
          -98 callgsubr
          hintmask 00011000
          222 251 -80 callgsubr
        </CharString>
        <CharString name="Acircumflex">
          -55 callgsubr
          82 -21 134 -20 hstemhm
          -98 callgsubr
          hintmask 00011000
          56 callgsubr
          endchar
        </CharString>
        <CharString name="Acircumflexacute">
          -55 callgsubr
          82 -21 291 -20 hstemhm
          -98 callgsubr
          hintmask 00011000
          56 callgsubr
          108 291 -90 callsubr
        </CharString>
        <CharString name="Acircumflexdotbelow">
          -55 callgsubr
          82 -21 134 113 callsubr
          hintmask 11111000
          -101 callgsubr
          56 callgsubr
          hintmask 00000010
          -246 -935 -73 callgsubr
          hintmask 00000100
          -40 callgsubr
        </CharString>
        <CharString name="Acircumflexgrave">
          -55 callgsubr
          82 -21 134 -20 hstemhm
          -98 callgsubr
          hintmask 00011000
          56 callgsubr
          82 169 -11 callgsubr
        </CharString>
        <CharString name="Acircumflexhookabove">
          -55 callgsubr
          82 -21 361 -20 hstemhm
          -98 callgsubr
          hintmask 00011000
          193 117 -86 callgsubr
        </CharString>
        <CharString name="Acircumflextilde">
          -55 callgsubr
          82 -21 189 68 callgsubr
          -98 callgsubr
          hintmask 00010100
          193 117 -27 callsubr
        </CharString>
        <CharString name="Adblgrave">
          -55 callgsubr
          92 42 callgsubr
          -98 callgsubr
          hintmask 00011000
          160 127 -86 callsubr
        </CharString>
        <CharString name="Adieresis">
          -55 callgsubr
          61 91 hstemhm
          367 -10 callgsubr
          87 -10 callgsubr
          -98 callgsubr
          hintmask 00010100
          -16 117 -50 callsubr
          hintmask 00011001
          -61 callsubr
          hintmask 00010010
          -11 callsubr
          endchar
        </CharString>
        <CharString name="Adotbelow">
          -55 callgsubr
          hstemhm
          261 101 -79 101 -98 callgsubr
          hintmask 00001000
          -112 -818 -49 callgsubr
        </CharString>
        <CharString name="Agrave">
          -55 callgsubr
          92 116 callgsubr
          -98 callgsubr
          hintmask 00011000
          134 127 -65 callgsubr
        </CharString>
        <CharString name="Ahookabove">
          -55 callgsubr
          82 -21 212 -20 hstemhm
          -98 callgsubr
          hintmask 00011000
          169 251 -101 callsubr
        </CharString>
        <CharString name="Alpha">
          -55 callgsubr
          hstem
          -101 callgsubr
          endchar
        </CharString>
        <CharString name="Amacron">
          -55 callgsubr
          81 70 hstemhm
          -98 callgsubr
          hintmask 00010000
          232 137 -74 callsubr
        </CharString>
        <CharString name="Aogonek">
          708 -212 70 -45 59 149 -21 198 59 437 -29 callsubr
          endchar
        </CharString>
        <CharString name="Aogonekacute">
          708 -212 70 -45 59 149 -21 198 59 437 -20 92 -21 122 -29 callsubr
          hintmask 00000110
          255 249 -90 callsubr
        </CharString>
        <CharString name="Aring">
          -59 callsubr
          47 74 47 hstemhm
          536 67 hintmask 11101000
          -101 callgsubr
          hintmask 00110000
          97 160 rmoveto
          -35 -7 -40 -25 callgsubr
          8 39 -89 callgsubr
          endchar
        </CharString>
        <CharString name="Aringacute">
          -59 callsubr
          47 74 47 157 -20 hstemhm
          536 67 hintmask 11100100
          -101 callgsubr
          hintmask 00111000
          97 160 rmoveto
          -35 -7 -40 -25 callgsubr
          8 39 -89 callgsubr
          75 242 10 callgsubr
        </CharString>
        <CharString name="Atilde">
          -55 callgsubr
          61 68 callgsubr
          -98 callgsubr
          hintmask 00001000
          240 242 -48 callsubr
        </CharString>
        <CharString name="B">
          -42 callgsubr
        </CharString>
        <CharString name="Beta">
          -42 callgsubr
        </CharString>
        <CharString name="C">
          71 callsubr
          hstem
          -92 callgsubr
          endchar
        </CharString>
        <CharString name="Cacute">
          71 callsubr
          61 116 callgsubr
          hintmask 11000000
          -92 callgsubr
          hintmask 00110000
          115 821 -90 callsubr
        </CharString>
        <CharString name="Ccaron">
          71 callsubr
          51 -21 134 -20 hstemhm
          hintmask 11000000
          -92 callgsubr
          hintmask 00110000
          82 823 -80 callgsubr
        </CharString>
        <CharString name="Ccedilla">
          110 callgsubr
          93 callsubr
          -160 -60 150 149 32 hvcurveto
          160 34 131 139 146 hhcurveto
          82 callsubr
          -209 -179 -176 -192 -41 hvcurveto
          -189 -40 101 -179 213 hhcurveto
          87 43 13 43 86 hvcurveto
          -218 -79 -1 callgsubr
        </CharString>
        <CharString name="Ccircumflex">
          71 callsubr
          51 -21 134 -20 hstemhm
          hintmask 11000000
          -92 callgsubr
          hintmask 00110000
          53 689 -75 callsubr
        </CharString>
        <CharString name="Cdotaccent">
          71 callsubr
          30 101 hstemhm
          479 101 -79 101 hintmask 11000000
          -92 callgsubr
          hintmask 00101000
          -53 689 -73 callgsubr
          hintmask 00110000
          -40 callgsubr
        </CharString>
        <CharString name="Chi">
          3 callgsubr
        </CharString>
        <CharString name="D">
          114 callgsubr
          hstem
          -69 callgsubr
          endchar
        </CharString>
        <CharString name="Dcaron">
          114 callgsubr
          107 callgsubr
          hintmask 11000000
          -69 callgsubr
          hintmask 00110000
          -64 527 -80 callgsubr
        </CharString>
        <CharString name="Dcroat">
          -41 callgsubr
        </CharString>
        <CharString name="Ddotbelow">
          114 callgsubr
          hstemhm
          182 101 -79 101 hintmask 11000000
          -69 callgsubr
          hintmask 00010000
          -399 -542 -27 callgsubr
        </CharString>
        <CharString name="Delta">
          885 0 94 600 -20 hstem
          840 hmoveto
          -200 694 rlineto
          -100 hlineto
          -496 -37 callgsubr
          655 94 rmoveto
          -502 hlineto
          206 290 45 65 89 125 22 44 rlinecurve
          4 -39 17 -62 13 -46 rrcurveto
          endchar
        </CharString>
        <CharString name="Dlinebelow">
          767 -184 70 114 59 576 59 hstemhm
          hintmask 01100000
          -69 callgsubr
          hintmask 10000000
          -254 -526 -74 callsubr
        </CharString>
        <CharString name="E">
          -52 callsubr
          hstem
          592 hmoveto
          -102 callgsubr
          endchar
        </CharString>
        <CharString name="Eacute">
          -52 callsubr
          75 -21 122 -20 -95 callgsubr
          hintmask 00011000
          596 867 -90 callsubr
        </CharString>
        <CharString name="Ebreve">
          -52 callsubr
          54 73 109 -20 -95 callgsubr
          hintmask 00011000
          599 927 -98 callsubr
          -53 callsubr
          26 hvcurveto
          endchar
        </CharString>
        <CharString name="Ecaron">
          -52 callsubr
          65 -21 134 -20 -95 callgsubr
          hintmask 00011000
          563 869 -80 callgsubr
        </CharString>
        <CharString name="Ecircumflex">
          -52 callsubr
          65 -21 134 -19 callgsubr
          endchar
        </CharString>
        <CharString name="Ecircumflexacute">
          -52 callsubr
          65 -21 291 -19 callgsubr
          108 291 -90 callsubr
        </CharString>
        <CharString name="Ecircumflexdotbelow">
          -52 callsubr
          65 -21 134 -20 hstemhm
          225 101 -79 101 hintmask 11111000
          592 hmoveto
          -102 callgsubr
          12 callsubr
          hintmask 00000010
          -246 -935 -73 callgsubr
          hintmask 00000100
          -40 callgsubr
        </CharString>
        <CharString name="Ecircumflexgrave">
          -52 callsubr
          65 -21 134 -19 callgsubr
          82 169 -11 callgsubr
        </CharString>
        <CharString name="Ecircumflexhookabove">
          -52 callsubr
          65 -21 361 -20 hstemhm
          hintmask 11100000
          592 hmoveto
          17 78 rlineto
          -90 hlineto
          -253 -2 rlineto
          -52 hlineto
          53 250 rlineto
          349 hlineto
          14 66 rlineto
          -349 hlineto
          49 230 rlineto
          146 hlineto
          12 12 -1 12 hhcurveto
          197 hlineto
          15 70 rlineto
          -480 hlineto
          -147 -691 rlineto
          hintmask 00011000
          534 735 -86 callgsubr
        </CharString>
        <CharString name="Ecircumflextilde">
          -52 callsubr
          65 -21 189 66 -7 66 -95 callgsubr
          hintmask 00010100
          534 735 -27 callsubr
        </CharString>
        <CharString name="Edblgrave">
          -52 callsubr
          75 -21 167 -20 -95 callgsubr
          hintmask 00011000
          531 745 -86 callsubr
        </CharString>
        <CharString name="Edieresis">
          -52 callsubr
          44 91 hstemhm
          331 -10 callgsubr
          87 -10 callgsubr
          hintmask 11100000
          592 hmoveto
          -102 callgsubr
          hintmask 00010100
          325 735 -50 callsubr
          hintmask 00011001
          -61 callsubr
          hintmask 00010010
          -11 callsubr
          endchar
        </CharString>
        <CharString name="Edotaccent">
          -52 callsubr
          44 101 hstemhm
          424 101 -79 101 hintmask 11100000
          592 hmoveto
          -102 callgsubr
          hintmask 00010100
          428 735 -73 callgsubr
          hintmask 00011000
          -40 callgsubr
        </CharString>
        <CharString name="Edotbelow">
          -52 callsubr
          hstemhm
          225 101 -79 101 hintmask 11100000
          592 hmoveto
          -102 callgsubr
          hintmask 00001000
          229 -200 -49 callgsubr
        </CharString>
        <CharString name="Egrave">
          -52 callsubr
          75 -21 122 -20 -95 callgsubr
          hintmask 00011000
          475 745 -65 callgsubr
        </CharString>
        <CharString name="Ehookabove">
          -52 callsubr
          65 -21 212 -20 -95 callgsubr
          hintmask 00011000
          510 869 -101 callsubr
        </CharString>
        <CharString name="Emacron">
          -52 callsubr
          64 70 -95 callgsubr
          hintmask 00010000
          573 755 -74 callsubr
        </CharString>
        <CharString name="Eng">
          750 -21 86 564 86 hstemhm
          97 101 0 100 -53 101 280 100 hintmask 01101000
          726 347 rmoveto
          184 39 -38 184 -162 hhcurveto
          -83 -83 -32 -52 -67 hvcurveto
          14 63 -57 callsubr
          101 hlineto
          hintmask 11010100
          100 472 rlineto
          92 46 101 65 102 hhcurveto
          115 -8 -147 -135 -28 hvcurveto
          -135 -29 -55 -147 -115 hhcurveto
          -18 -86 rlineto
          162 116 185 183 39 hvcurveto
          endchar
        </CharString>
        <CharString name="Eogonek">
          637 -212 70 142 78 248 66 229 70 hstem
          267 63 223 63 vstem
          554 -187 rmoveto
          -64 callsubr
          8 44 50 34 52 26 rrcurveto
          44 hlineto
          -102 callgsubr
          387 hlineto
          24 callsubr
          rrcurveto
          -49 callsubr
          endchar
        </CharString>
        <CharString name="Eogonekacute">
          637 -212 70 142 78 248 66 229 70 75 116 callgsubr
          267 63 223 63 hintmask 11110011
          554 -187 rmoveto
          -64 callsubr
          8 44 50 34 52 26 rrcurveto
          44 hlineto
          -102 callgsubr
          387 hlineto
          24 callsubr
          rrcurveto
          -49 callsubr
          hintmask 00001100
          139 1054 -90 callsubr
        </CharString>
        <CharString name="Epsilon">
          -52 callsubr
          hstem
          592 hmoveto
          -102 callgsubr
          endchar
        </CharString>
        <CharString name="Ereversed">
          -52 callsubr
          hstem
          592 hmoveto
          147 691 rlineto
          -480 hlineto
          -15 -70 rlineto
          197 hlineto
          12 12 1 12 hhcurveto
          146 hlineto
          -49 -230 rlineto
          -349 hlineto
          -14 -66 rlineto
          349 hlineto
          -53 -250 rlineto
          -52 hlineto
          -251 2 rlineto
          -90 hlineto
          -17 -78 rlineto
          endchar
        </CharString>
        <CharString name="Eta">
          21 callgsubr
          hstem
          66 callsubr
          vstem
          -75 callgsubr
          endchar
        </CharString>
        <CharString name="Eth">
          -41 callgsubr
        </CharString>
        <CharString name="Etilde">
          -52 callsubr
          44 66 -7 66 -95 callgsubr
          hintmask 00001000
          581 860 -48 callsubr
        </CharString>
        <CharString name="Euro">
          636 -21 70 206 60 64 60 206 70 hstem
          201 100 vstem
          590 35 rmoveto
          10 76 rlineto
          -50 -63 -33 -12 -72 hhcurveto
          -58 -40 39 48 -21 hvcurveto
          -16 37 -7 40 42 vvcurveto
          260 hlineto
          24 60 rlineto
          -279 hlineto
          2 11 2 11 2 10 2 11 3 11 3 10 rrcurveto
          289 hlineto
          24 60 rlineto
          -293 hlineto
          18 42 24 41 32 36 rrcurveto
          49 42 56 38 57 hhcurveto
          56 35 -15 -39 32 hvcurveto
          35 90 rlineto
          25 -47 -38 9 -58 hhcurveto
          -82 -84 -43 -64 -65 hvcurveto
          -49 -50 -38 -58 -26 -61 rrcurveto
          -71 hlineto
          -24 -60 rlineto
          75 hlineto
          -3 -10 -3 -11 -2 -11 -2 -10 -2 -11 -2 -11 rrcurveto
          -64 hlineto
          -23 -60 rlineto
          82 hlineto
          -61 13 -58 29 -49 vhcurveto
          -64 37 66 -44 82 hhcurveto
          73 33 11 45 67 hvcurveto
          endchar
        </CharString>
        <CharString name="F">
          608 21 -21 313 66 242 70 hstem
          97 101 vstem
          695 621 rmoveto
          15 70 rlineto
          -466 hlineto
          -147 -691 rlineto
          101 hlineto
          67 313 rlineto
          320 hlineto
          14 66 rlineto
          -320 hlineto
          51 243 rlineto
          139 106 callsubr
        </CharString>
        <CharString name="G">
          32 callsubr
          hstem
          -99 callgsubr
          endchar
        </CharString>
        <CharString name="Gacute">
          32 callsubr
          61 116 callgsubr
          hintmask 11100000
          -99 callgsubr
          hintmask 00011000
          86 828 -90 callsubr
        </CharString>
        <CharString name="Gamma">
          578 21 -21 621 70 hstem
          97 101 vstem
          665 621 rmoveto
          15 70 rlineto
          -436 hlineto
          -147 -691 rlineto
          101 hlineto
          132 622 rlineto
          124 106 callsubr
        </CharString>
        <CharString name="Gbreve">
          32 callsubr
          40 73 109 -20 hstemhm
          hintmask 11100000
          -99 callgsubr
          hintmask 00011000
          89 888 -98 callsubr
          -53 callsubr
          26 hvcurveto
          endchar
        </CharString>
        <CharString name="Gcaron">
          32 callsubr
          51 -21 134 -20 hstemhm
          hintmask 11100000
          -99 callgsubr
          hintmask 00011000
          53 830 -80 callgsubr
        </CharString>
        <CharString name="Gcedilla">
          708 -28 callsubr
          66 34 callgsubr
          hstem
          -99 callgsubr
          -280 -195 -89 callsubr
        </CharString>
        <CharString name="Gcircumflex">
          32 callsubr
          51 -21 134 -20 hstemhm
          hintmask 11100000
          -99 callgsubr
          hintmask 00011000
          24 696 -75 callsubr
        </CharString>
        <CharString name="Gcommaaccent">
          708 -28 callsubr
          66 34 callgsubr
          hstemhm
          hintmask 00111000
          -99 callgsubr
          hintmask 11000000
          -280 -195 -89 callsubr
        </CharString>
        <CharString name="Gdotaccent">
          32 callsubr
          30 101 hstemhm
          460 101 -79 101 hintmask 11100000
          -99 callgsubr
          hintmask 00010100
          -82 696 -73 callgsubr
          hintmask 00011000
          -40 callgsubr
        </CharString>
        <CharString name="H">
          21 callgsubr
          hstem
          66 callsubr
          vstem
          -75 callgsubr
          endchar
        </CharString>
        <CharString name="H_uni0303">
          21 callgsubr
          61 66 -7 66 118 callsubr
          hintmask 1110011110000000
          -75 callgsubr
          hintmask 0000100000000000
          184 860 -26 callsubr
          hintmask 0001000000000000
          -64 callgsubr
          hintmask 0000100000000000
          19 -26 -19 15 -28 hhcurveto
          hintmask 0001000000000000
          -69 callsubr
          hintmask 0000100000000000
          11 callgsubr
          hintmask 0001000000000000
          -22 callsubr
          hintmask 0000100000000000
          -62 callsubr
        </CharString>
        <CharString name="Hbar">
          750 21 -21 328 66 92 70 138 -20 hstemhm
          97 101 2 101 -86 101 -71 101 205 101 2 101 -86 101 -71 101 hintmask 0010000000100000
          812 486 rmoveto
          15 70 rlineto
          -57 hlineto
          hintmask 0001000000010000
          30 138 -15 callgsubr
          hintmask 0010001000100000
          -30 -138 rlineto
          -353 hlineto
          hintmask 0001000100000000
          30 138 -15 callgsubr
          hintmask 0010001000000000
          -30 -138 rlineto
          -57 hlineto
          -15 -70 rlineto
          hintmask 1110110011000000
          57 hlineto
          -103 -486 rlineto
          101 hlineto
          70 328 rlineto
          353 hlineto
          -70 -328 rlineto
          101 hlineto
          103 486 rlineto
          -120 -92 rmoveto
          -353 hlineto
          19 92 rlineto
          353 hlineto
          endchar
        </CharString>
        <CharString name="Hbrevebelow">
          750 108 callgsubr
          99 -21 328 66 300 -20 118 callsubr
          hintmask 0011111110000000
          -75 callgsubr
          hintmask 1100000000000000
          -8 -58 -98 callsubr
          -53 callsubr
          26 hvcurveto
          endchar
        </CharString>
        <CharString name="Hcircumflex">
          21 callgsubr
          82 -21 134 -20 118 callsubr
          hintmask 1110011110000000
          -75 callgsubr
          hintmask 0001100000000000
          137 -2 callgsubr
        </CharString>
        <CharString name="Hdieresis">
          21 callgsubr
          61 91 hstemhm
          80 callsubr
          42 -10 callgsubr
          53 101 -67 -10 callgsubr
          4 101 hintmask 1110110010010000
          -75 callgsubr
          hintmask 0001000100000000
          -72 735 -50 callsubr
          hintmask 0001001000100000
          -61 callsubr
          hintmask 0001000001000000
          -11 callsubr
          endchar
        </CharString>
        <CharString name="Hdotbelow">
          21 callgsubr
          hstemhm
          80 callsubr
          -65 101 -79 101 147 101 47 101 hintmask 1111100110000000
          -75 callgsubr
          hintmask 0000001000000000
          -169 99 callgsubr
          hintmask 0000010000000000
          -40 callgsubr
        </CharString>
        <CharString name="I">
          27 callsubr
          hstem
          80 callsubr
          vstem
          -72 callsubr
          endchar
        </CharString>
        <CharString name="I_J">
          767 -21 67 648 -20 hstem
          80 callsubr
          383 98 vstem
          -72 callsubr
          614 -63 callsubr
          endchar
        </CharString>
        <CharString name="Iacute">
          27 callsubr
          92 116 callgsubr
          80 callsubr
          hintmask 11001100
          -72 callsubr
          hintmask 00110000
          470 867 -90 callsubr
        </CharString>
        <CharString name="Ibreve">
          27 callsubr
          71 73 109 -20 hstemhm
          80 callsubr
          hintmask 11001100
          -72 callsubr
          hintmask 00110000
          428 927 -98 callsubr
          -53 callsubr
          26 hvcurveto
          endchar
        </CharString>
        <CharString name="Icaron">
          27 callsubr
          82 -21 134 -20 hstemhm
          80 callsubr
          hintmask 11001100
          -72 callsubr
          hintmask 00110000
          392 869 -80 callgsubr
        </CharString>
        <CharString name="Icircumflex">
          27 callsubr
          82 -21 134 -20 hstemhm
          80 callsubr
          hintmask 11001100
          -72 callsubr
          hintmask 00110000
          363 -2 callgsubr
        </CharString>
        <CharString name="Idblgrave">
          27 callsubr
          92 42 callgsubr
          80 callsubr
          hintmask 11001100
          -72 callsubr
          hintmask 00110000
          360 745 -86 callsubr
        </CharString>
        <CharString name="Idieresis">
          295 99 callsubr
          97 101 -38 -10 callgsubr
          -25 101 11 -10 callgsubr
          hintmask 1101001000000000
          -72 callsubr
          hintmask 0010010000000000
          154 735 -50 callsubr
          hintmask 0010100010000000
          -61 callsubr
          hintmask 0010000100000000
          -11 callsubr
          endchar
        </CharString>
        <CharString name="Idieresisacute">
          27 callsubr
          61 91 67 callsubr
          97 101 -38 -10 callgsubr
          -25 101 11 -10 callgsubr
          hintmask 1100010010000000
          -72 callsubr
          hintmask 0010000100000000
          154 735 -50 callsubr
          hintmask 0010001000100000
          -61 callsubr
          hintmask 0011100001000000
          -11 callsubr
          193 264 -90 callsubr
        </CharString>
        <CharString name="Idotaccent">
          27 callsubr
          61 101 hstemhm
          80 callsubr
          -93 101 -79 75 callgsubr
          hintmask 00100010
          257 735 -73 callgsubr
          hintmask 00100100
          -40 callgsubr
        </CharString>
        <CharString name="Idotbelow">
          27 callsubr
          hstemhm
          54 101 -79 101 -80 101 47 101 hintmask 11001100
          -72 callsubr
          hintmask 00010000
          58 -200 -27 callgsubr
        </CharString>
        <CharString name="Igrave">
          27 callsubr
          92 116 callgsubr
          80 callsubr
          hintmask 11001100
          -72 callsubr
          hintmask 00110000
          259 745 -65 callgsubr
        </CharString>
        <CharString name="Ihookabove">
          27 callsubr
          82 -21 212 -20 hstemhm
          80 callsubr
          hintmask 11001100
          -72 callsubr
          hintmask 00110100
          339 869 -101 callsubr
        </CharString>
        <CharString name="Imacron">
          29 callgsubr
          402 755 -74 callsubr
        </CharString>
        <CharString name="Imacron.alt">
          29 callgsubr
          313 755 9 callsubr
        </CharString>
        <CharString name="Iogonek">
          295 -212 70 163 -21 callgsubr
          hstem
          80 callsubr
          vstem
          202 -187 rmoveto
          -64 callsubr
          8 44 52 34 52 26 -39 callsubr
          rcurveline
          -52 callgsubr
          35 hlineto
          24 callsubr
          rrcurveto
          -49 callsubr
          endchar
        </CharString>
        <CharString name="Iogonekacute">
          295 -212 70 163 -21 callgsubr
          92 116 callgsubr
          80 callsubr
          hintmask 11100110
          202 -187 rmoveto
          -64 callsubr
          8 44 52 34 52 26 -39 callsubr
          rcurveline
          -52 callgsubr
          35 hlineto
          24 callsubr
          rrcurveto
          -49 callsubr
          hintmask 00011000
          365 1054 -90 callsubr
        </CharString>
        <CharString name="Iota">
          27 callsubr
          hstem
          80 callsubr
          vstem
          -72 callsubr
          endchar
        </CharString>
        <CharString name="Itilde">
          27 callsubr
          61 68 callgsubr
          80 callsubr
          hintmask 11001100
          -72 callsubr
          hintmask 00010000
          410 860 -94 callgsubr
        </CharString>
        <CharString name="J">
          114 callsubr
          hstem
          463 98 vstem
          445 -63 callsubr
          endchar
        </CharString>
        <CharString name="J_uni030C.cap">
          501.75 -21 67 473 -21 115 81 hstem
          463 98 vstem
          445 -63 callsubr
          220 465 -3 callgsubr
        </CharString>
        <CharString name="Jacute">
          114 callsubr
          92 116 callgsubr
          463 98 hintmask 11001000
          445 -63 callsubr
          hintmask 00110000
          340 718 -90 callsubr
        </CharString>
        <CharString name="Jcircumflex">
          114 callsubr
          82 -21 134 -20 hstemhm
          463 98 hintmask 11001000
          445 -63 callsubr
          hintmask 00110000
          232 586 -75 callsubr
        </CharString>
        <CharString name="K">
          738 88 callsubr
          100 94 54 94 vstem
          -46 callgsubr
          endchar
        </CharString>
        <CharString name="Kappa">
          738 88 callsubr
          100 94 54 94 vstem
          -46 callgsubr
          endchar
        </CharString>
        <CharString name="Kcedilla">
          738 27 callgsubr
          hstem
          100 94 54 94 vstem
          -46 callgsubr
          -213 -156 -89 callsubr
        </CharString>
        <CharString name="Kcommaaccent">
          738 18 callsubr
          100 94 54 94 hintmask 00111100
          -46 callgsubr
          hintmask 11000000
          -213 -156 -89 callsubr
        </CharString>
        <CharString name="L">
          88 callgsubr
          hstem
          245 101 vstem
          -62 callgsubr
          endchar
        </CharString>
        <CharString name="L_uni0303">
          88 callgsubr
          61 68 callgsubr
          245 101 hintmask 11001000
          -62 callgsubr
          hintmask 00010000
          411 860 -94 callgsubr
        </CharString>
        <CharString name="Lacute">
          88 callgsubr
          92 116 callgsubr
          245 101 hintmask 11001000
          -62 callgsubr
          hintmask 00110000
          470 867 -90 callsubr
        </CharString>
        <CharString name="Lambda">
          649 88 callsubr
          618 hmoveto
          -98 694 rlineto
          -96 hlineto
          -394 -37 callgsubr
          81 hlineto
          154 272 95 176 23 40 46 88 12 37 rlinecurve
          1 hlineto
          -2 -22 2 -53 6 -54 14 -130 rcurveline
          49 -354 rlineto
          endchar
        </CharString>
        <CharString name="Lcaron">
          578 0 69 450 -21 115 81 hstem
          245 101 vstem
          -62 callgsubr
          373 614 -3 callgsubr
        </CharString>
        <CharString name="Lcedilla">
          578 -28 callsubr
          76 69 625 -20 hstem
          245 101 vstem
          -62 callgsubr
          200 -156 -89 callsubr
        </CharString>
        <CharString name="Lcommaaccent">
          578 -28 callsubr
          76 69 625 -20 hstemhm
          245 101 hintmask 00111000
          -62 callgsubr
          hintmask 11000000
          200 -156 -89 callsubr
        </CharString>
        <CharString name="Ldot">
          578 0 69 248 101 276 -20 hstem
          245 101 107 101 vstem
          -62 callgsubr
          457 317 -73 callgsubr
          -40 callgsubr
        </CharString>
        <CharString name="Ldotbelow">
          88 callgsubr
          hstemhm
          195 101 -79 101 -73 101 hintmask 11001000
          -62 callgsubr
          hintmask 00010000
          199 -200 -27 callgsubr
        </CharString>
        <CharString name="Ldotbelowmacron">
          88 callgsubr
          81 70 hstemhm
          195 101 -79 101 -73 101 hintmask 11000100
          -62 callgsubr
          199 -200 45 callsubr
          304 955 -74 callsubr
        </CharString>
        <CharString name="Lslash">
          667 115 callgsubr
          hstem
          337 101 vstem
          625 hmoveto
          15 71 -285 -2 rlineto
          -50 hlineto
          63 298 192 136 -29 45 -147 -106 54 252 -15 callgsubr
          -72 -336 -111 -80 28 -43 67 48 -60 -283 rlineto
          endchar
        </CharString>
        <CharString name="M">
          927 88 callsubr
          105 84 548 84 vstem
          -63 callgsubr
          endchar
        </CharString>
        <CharString name="Mdotbelow">
          927 -25 callsubr
          hstemhm
          105 84 181 101 -79 101 244 84 hintmask 11100100
          -63 callgsubr
          hintmask 00001000
          -266 -200 -49 callgsubr
        </CharString>
        <CharString name="Mu">
          927 88 callsubr
          105 84 548 84 vstem
          -63 callgsubr
          endchar
        </CharString>
        <CharString name="N">
          84 callgsubr
          hstem
          100 84 529 84 vstem
          -83 callgsubr
          endchar
        </CharString>
        <CharString name="Nacute">
          84 callgsubr
          92 116 callgsubr
          100 84 529 84 hintmask 11001100
          -83 callgsubr
          hintmask 00110000
          237 867 -90 callsubr
        </CharString>
        <CharString name="Ncaron">
          84 callgsubr
          82 -21 134 -20 hstemhm
          100 84 529 84 hintmask 11001100
          -83 callgsubr
          hintmask 00110000
          204 869 -80 callgsubr
        </CharString>
        <CharString name="Ncedilla">
          750 27 callgsubr
          hstem
          100 84 529 84 vstem
          -83 callgsubr
          -130 -156 -89 callsubr
        </CharString>
        <CharString name="Ncommaaccent">
          750 18 callsubr
          100 84 529 84 hintmask 00111100
          -83 callgsubr
          hintmask 11000000
          -130 -156 -89 callsubr
        </CharString>
        <CharString name="Ndotaccent">
          84 callgsubr
          61 101 hstemhm
          100 84 297 101 -79 101 109 84 hintmask 11011010
          -83 callgsubr
          hintmask 00100100
          69 735 -73 callgsubr
          hintmask 00101000
          -40 callgsubr
        </CharString>
        <CharString name="Ndotbelow">
          84 callgsubr
          hstemhm
          100 84 97 101 -79 101 309 84 hintmask 11100100
          -83 callgsubr
          hintmask 00001000
          -131 -200 -49 callgsubr
        </CharString>
        <CharString name="Ntilde">
          84 callgsubr
          61 68 callgsubr
          100 84 529 84 hintmask 11001100
          -83 callgsubr
          hintmask 00010000
          222 860 -94 callgsubr
        </CharString>
        <CharString name="Nu">
          84 callgsubr
          hstem
          100 84 529 84 vstem
          -83 callgsubr
          endchar
        </CharString>
        <CharString name="O">
          -48 callgsubr
          hstem
          -106 callgsubr
          endchar
        </CharString>
        <CharString name="OE">
          -58 callgsubr
        </CharString>
        <CharString name="OE.dup">
          -58 callgsubr
        </CharString>
        <CharString name="Oacute">
          -48 callgsubr
          51 116 callgsubr
          -105 callgsubr
          hintmask 00110000
          66 507 -90 callsubr
        </CharString>
        <CharString name="Obreve">
          -48 callgsubr
          30 73 109 -20 hstemhm
          -105 callgsubr
          hintmask 00110000
          69 567 -98 callsubr
          -53 callsubr
          26 hvcurveto
          endchar
        </CharString>
        <CharString name="Ocaron">
          -48 callgsubr
          41 -21 134 -20 hstemhm
          -105 callgsubr
          hintmask 00110000
          33 509 -80 callgsubr
        </CharString>
        <CharString name="Ocircumflex">
          -48 callgsubr
          41 -21 134 -20 hstemhm
          -105 callgsubr
          hintmask 00110000
          59 callsubr
          endchar
        </CharString>
        <CharString name="Ocircumflexacute">
          -48 callgsubr
          41 -21 291 -20 hstemhm
          -105 callgsubr
          hintmask 00110000
          59 callsubr
          108 291 -90 callsubr
        </CharString>
        <CharString name="Ocircumflexdotbelow">
          -48 callgsubr
          41 -21 134 -20 hstemhm
          299 101 -79 101 hintmask 11110000
          -106 callgsubr
          59 callsubr
          hintmask 00000100
          -246 -935 -73 callgsubr
          hintmask 00001000
          -40 callgsubr
        </CharString>
        <CharString name="Ocircumflexgrave">
          -48 callgsubr
          41 -21 134 -20 hstemhm
          -105 callgsubr
          hintmask 00110000
          59 callsubr
          82 169 -11 callgsubr
        </CharString>
        <CharString name="Ocircumflexhookabove">
          -48 callgsubr
          41 -21 361 -20 hstemhm
          -105 callgsubr
          hintmask 00110000
          4 375 -86 callgsubr
        </CharString>
        <CharString name="Ocircumflextilde">
          -48 callgsubr
          41 -21 189 68 callgsubr
          -105 callgsubr
          hintmask 00101000
          59 callsubr
          146 314 -26 callsubr
          hintmask 00010000
          105 callgsubr
          hintmask 00001000
          20 callgsubr
          hintmask 00010000
          -69 callsubr
          hintmask 00001000
          11 callgsubr
          hintmask 00010000
          -22 callsubr
          hintmask 00001000
          -62 callsubr
        </CharString>
        <CharString name="Odblgrave">
          -48 callgsubr
          51 42 callgsubr
          -105 callgsubr
          hintmask 00110000
          1 385 -86 callsubr
        </CharString>
        <CharString name="Odieresis">
          -48 callgsubr
          20 91 hstemhm
          405 -10 callgsubr
          87 -10 callgsubr
          -105 callgsubr
          hintmask 00101000
          -205 375 50 callgsubr
        </CharString>
        <CharString name="Odotbelow">
          -48 callgsubr
          hstemhm
          299 101 -79 101 -105 callgsubr
          hintmask 00010000
          -301 -560 -27 callgsubr
        </CharString>
        <CharString name="Ograve">
          -48 callgsubr
          51 116 callgsubr
          -105 callgsubr
          hintmask 00110000
          -55 385 -65 callgsubr
        </CharString>
        <CharString name="Ohookabove">
          -48 callgsubr
          41 -21 212 -20 hstemhm
          -105 callgsubr
          hintmask 00110000
          -20 509 -101 callsubr
        </CharString>
        <CharString name="Ohorn">
          -48 callgsubr
          70 -20 hstemhm
          713 91 -73 91 hintmask 00010000
          -38 callgsubr
          hintmask 00101000
          22 callgsubr
          hintmask 11010000
          -95 callsubr
          endchar
        </CharString>
        <CharString name="Ohornacute">
          -48 callgsubr
          51 -21 40 -20 102 -20 hstemhm
          713 91 -73 91 hintmask 00000100
          -38 callgsubr
          hintmask 00010010
          22 callgsubr
          hintmask 11000100
          -95 callsubr
          hintmask 00101000
          37 506 -90 callsubr
        </CharString>
        <CharString name="Ohorndotbelow">
          -48 callgsubr
          70 -20 hstemhm
          299 101 -79 101 291 91 -73 91 hintmask 00000100
          -38 callgsubr
          hintmask 00100010
          22 callgsubr
          hintmask 11000100
          -95 callsubr
          hintmask 00001000
          -300 -561 -49 callgsubr
        </CharString>
        <CharString name="Ohorngrave">
          -48 callgsubr
          51 -21 40 -20 102 -20 hstemhm
          713 91 -73 91 hintmask 00000100
          -38 callgsubr
          hintmask 00010010
          22 callgsubr
          hintmask 11000100
          -95 callsubr
          hintmask 00101000
          -54 384 -65 callgsubr
        </CharString>
        <CharString name="Ohornhookabove">
          -48 callgsubr
          41 -21 50 -20 182 -20 hstemhm
          713 91 -73 91 hintmask 00000100
          -38 callgsubr
          hintmask 00010010
          22 callgsubr
          hintmask 11000100
          -95 callsubr
          hintmask 00101000
          -19 508 -101 callsubr
        </CharString>
        <CharString name="Ohorntilde">
          -48 callgsubr
          20 68 callgsubr
          713 91 -73 91 hintmask 00001000
          -38 callgsubr
          hintmask 00000100
          22 callgsubr
          hintmask 11001000
          -95 callsubr
          hintmask 00010000
          52 499 -94 callgsubr
        </CharString>
        <CharString name="Ohungarumlaut">
          -48 callgsubr
          51 42 callgsubr
          -105 callgsubr
          hintmask 00110000
          -116 552 -56 callgsubr
        </CharString>
        <CharString name="Omacron">
          -48 callgsubr
          40 70 hstemhm
          -105 callgsubr
          hintmask 00100000
          43 395 -74 callsubr
        </CharString>
        <CharString name="Omega">
          -51 callsubr
        </CharString>
        <CharString name="Omicron">
          -48 callgsubr
          hstem
          -106 callgsubr
          endchar
        </CharString>
        <CharString name="Oogonek">
          -48 callgsubr
          hstem
          -47 callgsubr
          endchar
        </CharString>
        <CharString name="Oogonekacute">
          -48 callgsubr
          51 116 callgsubr
          hintmask 11000000
          -47 callgsubr
          hintmask 00110000
          66 507 -90 callsubr
        </CharString>
        <CharString name="Orogate">
          785 798 344 rmoveto
          41 194 -100 157 -162 18 36 172 rcurveline
          -66 hlineto
          -36 -172 -170 -18 -168 -157 -41 -194 rlinecurve
          -41 -194 103 -151 161 -18 -37 -172 rcurveline
          66 hlineto
          37 172 169 18 167 152 41 193 rlinecurve
          -97 16 rmoveto
          -190 -41 -136 -120 -121 hhcurveto
          -121 -86 121 189 41 hvcurveto
          177 37 135 109 120 hhcurveto
          120 89 -109 -177 -37 hvcurveto
          endchar
        </CharString>
        <CharString name="Oslash">
          70 callsubr
          hstem
          108 callsubr
          vstem
          -78 callsubr
          endchar
        </CharString>
        <CharString name="Oslash.dup">
          70 callsubr
          hstem
          108 callsubr
          vstem
          -78 callsubr
          endchar
        </CharString>
        <CharString name="Oslashacute">
          70 callsubr
          25 116 callgsubr
          108 callsubr
          hintmask 11110011
          -78 callsubr
          hintmask 00001100
          43 523 -90 callsubr
        </CharString>
        <CharString name="Otilde">
          -48 callgsubr
          20 68 callgsubr
          -105 callgsubr
          hintmask 00010000
          51 500 -94 callgsubr
        </CharString>
        <CharString name="P">
          -17 callsubr
        </CharString>
        <CharString name="Phi">
          767 21 -21 106 68 346 68 -67 68 105 -20 hstemhm
          133 98 102 94 -71 94 -80 94 -20 94 -80 94 -71 94 108 98 hintmask 0010000000100000
          781 347 rmoveto
          25 119 -95 106 -159 16 rrcurveto
          hintmask 0000100000010000
          23 106 rlineto
          -94 hlineto
          hintmask 0000010100100000
          -23 -107 -159 -17 -141 -103 -25 -120 rlinecurve
          -26 -120 97 -103 152 -17 rrcurveto
          hintmask 1000001000000000
          -23 -107 rlineto
          94 hlineto
          hintmask 0100010100001000
          23 106 165 16 140 106 26 119 rlinecurve
          -411 -173 rmoveto
          -104 14 -54 71 19 88 rrcurveto
          hintmask 0010000001000000
          18 87 84 72 111 14 rrcurveto
          hintmask 0100000010000000
          239 -173 rmoveto
          -17 -79 -76 -80 -126 -15 rrcurveto
          hintmask 0001000001001000
          74 348 120 -15 42 -79 -17 -80 rlinecurve
          endchar
        </CharString>
        <CharString name="Pi">
          750 21 -21 625 66 hstem
          97 101 353 101 vstem
          652 hmoveto
          147 691 rlineto
          -555 hlineto
          -147 -691 rlineto
          101 hlineto
          133 625 rlineto
          353 hlineto
          -133 -625 rlineto
          endchar
        </CharString>
        <CharString name="Psi">
          826 21 -21 108 68 372 68 78 -20 hstemhm
          362 94 -71 94 -80 94 17 94 hintmask 01110011
          883 550 rmoveto
          14 66 rlineto
          -84 hlineto
          -46 -38 -13 -163 -34 hvcurveto
          -16 -75 -34 -153 -152 -36 111 518 rcurveline
          -94 hlineto
          -111 -518 -124 36 24 143 15 68 rlinecurve
          148 31 -6 45 -65 hhcurveto
          -84 hlineto
          -14 -66 69 -3 -19 -96 -11 -49 rlinecurve
          hintmask 00000100
          -31 -154 49 -119 152 -22 rrcurveto
          hintmask 10001000
          -23 -107 rlineto
          94 hlineto
          hintmask 00000100
          23 107 243 31 50 223 14 67 rlinecurve
          6 30 25 89 66 3 rrcurveto
          endchar
        </CharString>
        <CharString name="Q">
          785 -107 -21 107 69 598 69 hstem
          132 98 154 98 218 98 vstem
          798 344 rmoveto
          207 44 -117 164 -181 hhcurveto
          -181 -187 -164 -207 -44 hvcurveto
          -207 -44 121 -158 179 hhcurveto
          45 43 12 3 11 hvcurveto
          63 -122 rlineto
          118 hlineto
          -93 161 113 70 83 112 27 129 rlinecurve
          -98 hmoveto
          -24 -113 -61 -86 -74 -51 -59 100 rcurveline
          -98 hlineto
          72 -139 rlineto
          -5 -18 -23 -2 -13 hhcurveto
          -122 -89 114 182 39 hvcurveto
          184 39 137 118 123 hhcurveto
          123 87 -118 -184 -39 hvcurveto
          endchar
        </CharString>
        <CharString name="R">
          21 callsubr
          hstem
          43 callgsubr
          vstem
          -96 callgsubr
          endchar
        </CharString>
        <CharString name="Racute">
          21 callsubr
          67 callsubr
          43 callgsubr
          hintmask 11100111
          -96 callgsubr
          hintmask 00011000
          73 360 -90 callsubr
        </CharString>
        <CharString name="Rcaron">
          21 callsubr
          107 callgsubr
          43 callgsubr
          hintmask 11100111
          -96 callgsubr
          hintmask 00011000
          40 362 -80 callgsubr
        </CharString>
        <CharString name="Rcedilla">
          688 100 callsubr
          314 66 255 59 hstem
          43 callgsubr
          vstem
          -96 callgsubr
          -293 -663 -89 callsubr
        </CharString>
        <CharString name="Rcommaaccent">
          688 100 callsubr
          314 66 255 59 hstemhm
          43 callgsubr
          hintmask 00111111
          -96 callgsubr
          hintmask 11000000
          -293 -663 -89 callsubr
        </CharString>
        <CharString name="Rdblgrave">
          21 callsubr
          72 42 callgsubr
          43 callgsubr
          hintmask 11100111
          -96 callgsubr
          hintmask 00011000
          -21 238 -86 callsubr
        </CharString>
        <CharString name="Rdotaccent">
          21 callsubr
          41 101 hstemhm
          90 callgsubr
          20 101 -79 101 73 91 hintmask 1110110010000000
          -96 callgsubr
          hintmask 0001000100000000
          -95 228 -73 callgsubr
          hintmask 0001001000000000
          -40 callgsubr
        </CharString>
        <CharString name="Rdotbelow">
          21 callsubr
          105 callsubr
          hintmask 11110011
          -96 callgsubr
          hintmask 00000100
          -294 -707 -73 callgsubr
          hintmask 00001000
          -40 callgsubr
        </CharString>
        <CharString name="Rdotbelowmacron">
          21 callsubr
          61 70 105 callsubr
          hintmask 1110100110000000
          -96 callgsubr
          -294 -707 rmoveto
          hintmask 0000001000000000
          -67 callsubr
          hintmask 0000010000000000
          -22 -101 rlineto
          hintmask 0001000000000000
          445 955 -74 callsubr
        </CharString>
        <CharString name="Rho">
          -17 callsubr
        </CharString>
        <CharString name="S">
          64 callgsubr
          hstem
          202 86 vstem
          571 192 rmoveto
          -100 callgsubr
          endchar
        </CharString>
        <CharString name="S_S">
          1181 -21 75 589 72 hstem
          202 86 504 86 vstem
          571 192 rmoveto
          -100 callgsubr
          590 hmoveto
          -100 callgsubr
          endchar
        </CharString>
        <CharString name="Sacute">
          64 callgsubr
          51 116 callgsubr
          202 86 hintmask 11001000
          571 192 rmoveto
          -100 callgsubr
          hintmask 00110000
          99 675 -90 callsubr
        </CharString>
        <CharString name="Scaron">
          64 callgsubr
          41 -21 134 -20 hstemhm
          202 86 hintmask 11001000
          571 192 rmoveto
          -100 callgsubr
          hintmask 00110000
          66 677 -80 callgsubr
        </CharString>
        <CharString name="Scedilla">
          64 callgsubr
          hstem
          202 86 vstem
          571 192 rmoveto
          -100 callgsubr
          -235 -236 -1 callgsubr
        </CharString>
        <CharString name="Scircumflex">
          64 callgsubr
          41 -21 134 -20 hstemhm
          202 86 hintmask 11001000
          571 192 rmoveto
          -100 callgsubr
          hintmask 00110000
          37 543 -75 callsubr
        </CharString>
        <CharString name="Sdotbelow">
          64 callgsubr
          hstemhm
          202 86 -86 101 -79 101 hintmask 11100000
          571 192 rmoveto
          -100 callgsubr
          hintmask 00001000
          -268 -392 -73 callgsubr
          hintmask 00100000
          -22 -101 rlineto
          hintmask 00010000
          endchar
        </CharString>
        <CharString name="Sigma">
          767 0 76 548 70 hstem
          707 hmoveto
          16 76 rlineto
          -252 57 callsubr
          -195 hlineto
          261 272 -177 278 rlineto
          207 hlineto
          12 12 -1 12 hhcurveto
          273 hlineto
          15 70 rlineto
          -648 hlineto
          -15 -69 186 -293 -319 -332 rlineto
          endchar
        </CharString>
        <CharString name="T">
          84 callsubr
          hstem
          115 callsubr
          vstem
          -83 callsubr
          endchar
        </CharString>
        <CharString name="T_uni0303">
          84 callsubr
          48 68 callgsubr
          115 callsubr
          hintmask 11001100
          -83 callsubr
          hintmask 00010000
          48 243 -94 callgsubr
        </CharString>
        <CharString name="T_uni0308">
          84 callsubr
          48 91 hstemhm
          312 101 -38 -10 callgsubr
          -42 101 28 -10 callgsubr
          hintmask 1101001000000000
          -83 callsubr
          hintmask 0010010000000000
          -208 118 -50 callsubr
          hintmask 0010100010000000
          -61 callsubr
          hintmask 0010000100000000
          -11 callsubr
          endchar
        </CharString>
        <CharString name="Tau">
          84 callsubr
          hstem
          115 callsubr
          vstem
          -83 callsubr
          endchar
        </CharString>
        <CharString name="Tcaron">
          84 callsubr
          69 -21 134 -20 hstemhm
          115 callsubr
          hintmask 11001100
          -83 callsubr
          hintmask 00110000
          30 252 -80 callgsubr
        </CharString>
        <CharString name="Tcedilla">
          726 -170 -21 168 -20 64 120 callgsubr
          hstem
          115 callsubr
          vstem
          -83 callsubr
          -283 -640 -1 callgsubr
        </CharString>
        <CharString name="Tdotbelow">
          84 callsubr
          hstemhm
          269 101 -79 101 -80 101 30 101 hintmask 11001100
          -83 callsubr
          hintmask 00010000
          -304 -817 -27 callgsubr
        </CharString>
        <CharString name="Theta">
          826 -21 68 254 94 254 66 hstem
          108 callsubr
          vstem
          839 344 rmoveto
          206 44 -125 165 -193 hhcurveto
          -196 -194 -167 -204 -43 hvcurveto
          -205 -43 128 -160 191 hhcurveto
          195 193 162 203 43 hvcurveto
          -94 hmoveto
          -179 -38 -147 -118 -137 hhcurveto
          -141 -93 121 176 37 hvcurveto
          183 39 148 122 137 hhcurveto
          140 93 -125 -180 -38 hvcurveto
          -69 -43 rmoveto
          20 94 rlineto
          -399 hlineto
          -20 -94 rlineto
          endchar
        </CharString>
        <CharString name="Thorn">
          620 21 -21 180 59 269 59 127 -20 hstem
          100 94 vstem
          639 374 rmoveto
          102 22 -73 91 -128 hhcurveto
          -145 79 callsubr
          -94 -76 callsubr
          94 hlineto
          38 180 rlineto
          131 hlineto
          169 90 113 81 17 hvcurveto
          -91 hmoveto
          -51 -10 -58 -84 -135 hhcurveto
          -100 hlineto
          57 269 rlineto
          100 hlineto
          104 57 -64 -70 -15 hvcurveto
          endchar
        </CharString>
        <CharString name="Tlinebelow">
          726 -184 70 135 120 callgsubr
          hstemhm
          115 callsubr
          hintmask 01111000
          -83 callsubr
          hintmask 10000000
          -159 -801 -74 callsubr
        </CharString>
        <CharString name="U">
          -13 callgsubr
          hstem
          -5 callsubr
          vstem
          -102 callsubr
          endchar
        </CharString>
        <CharString name="U_uni032F">
          729 -219 -21 109 73 37 59 656 -20 -9 callsubr
          hintmask 00111110
          -102 callsubr
          hintmask 11000000
          -187 -474 -42 callsubr
        </CharString>
        <CharString name="Uacute">
          -13 callgsubr
          92 -21 122 -20 -9 callsubr
          hintmask 11001110
          -102 callsubr
          hintmask 00110000
          58 633 -90 callsubr
        </CharString>
        <CharString name="Ubreve">
          -13 callgsubr
          71 73 109 -20 -9 callsubr
          hintmask 11001110
          -102 callsubr
          hintmask 00110000
          61 693 -98 callsubr
          -53 callsubr
          26 hvcurveto
          endchar
        </CharString>
        <CharString name="Ucaron">
          -13 callgsubr
          82 -21 134 -20 -9 callsubr
          hintmask 11001110
          -102 callsubr
          hintmask 00110000
          25 635 -80 callgsubr
        </CharString>
        <CharString name="Ucircumflex">
          -13 callgsubr
          82 -21 134 -20 -9 callsubr
          hintmask 11001110
          -102 callsubr
          hintmask 00110000
          -4 501 -75 callsubr
        </CharString>
        <CharString name="Udblgrave">
          -13 callgsubr
          92 -21 167 -20 -9 callsubr
          hintmask 11001110
          -102 callsubr
          hintmask 00110000
          -7 511 -86 callsubr
        </CharString>
        <CharString name="Udieresis">
          -13 callgsubr
          61 91 hstemhm
          245 101 31 -10 callgsubr
          87 -10 callgsubr
          -90 87 11 87 hintmask 1101000011000000
          -102 callsubr
          hintmask 0010010000000000
          -213 501 -50 callsubr
          hintmask 0010100100000000
          -61 callsubr
          hintmask 0010001000000000
          -11 callsubr
          endchar
        </CharString>
        <CharString name="Udieresisacute">
          -13 callgsubr
          61 91 67 callsubr
          245 101 31 -10 callgsubr
          87 -10 callgsubr
          -90 87 11 87 hintmask 1100010000110000
          -102 callsubr
          hintmask 0010000100000000
          -213 501 -50 callsubr
          hintmask 0010001001000000
          -61 callsubr
          hintmask 0011100010000000
          -11 callsubr
          193 264 -90 callsubr
        </CharString>
        <CharString name="Udieresiscaron">
          -13 callgsubr
          61 91 107 callgsubr
          245 101 31 -10 callgsubr
          87 -10 callgsubr
          -90 87 11 87 hintmask 1100010000110000
          -102 callsubr
          hintmask 0010000100000000
          -213 501 -50 callsubr
          hintmask 0010001001000000
          -61 callsubr
          hintmask 0011100010000000
          -11 callsubr
          160 266 -80 callgsubr
        </CharString>
        <CharString name="Udieresisgrave">
          -13 callgsubr
          61 91 67 callsubr
          245 101 31 -10 callgsubr
          87 -10 callgsubr
          -90 87 11 87 hintmask 1100010000110000
          -102 callsubr
          hintmask 0010000100000000
          -213 501 -50 callsubr
          hintmask 0010001001000000
          -61 callsubr
          hintmask 0011100010000000
          -11 callsubr
          72 142 -65 callgsubr
        </CharString>
        <CharString name="Udotbelow">
          -13 callgsubr
          hstemhm
          245 101 -75 101 -79 101 200 87 11 87 hintmask 11100110
          -102 callsubr
          hintmask 00001000
          -309 -434 -49 callgsubr
        </CharString>
        <CharString name="Ugrave">
          -13 callgsubr
          92 -21 122 -20 -9 callsubr
          hintmask 11001110
          -102 callsubr
          hintmask 00110000
          -63 511 -65 callgsubr
        </CharString>
        <CharString name="Uhookabove">
          -13 callgsubr
          82 -21 212 -20 -9 callsubr
          hintmask 11001110
          -102 callsubr
          hintmask 00110000
          -28 635 -101 callsubr
        </CharString>
        <CharString name="Uhorn">
          729 -21 59 747 -20 hstemhm
          146 100 -1 100 -82 100 229 87 0 91 -79 87 16 91 -73 91 -88 87 hintmask 0000000001000000
          43 callsubr
          hintmask 0100000000100000
          -1 2 -35 callgsubr
          hintmask 0000000001000000
          -3 -2 rlineto
          hintmask 0000001010000000
          -18 -87 2 -2 rlineto
          24 hlineto
          -50 -34 rlineto
          hintmask 1010110100000000
          -60 callgsubr
          hintmask 0001000000000000
          99 463 rlineto
          -100 hlineto
          hintmask 1010101010000000
          -66 callsubr
          endchar
        </CharString>
        <CharString name="Uhornacute">
          729 -21 59 728 -21 40 -20 102 -82 callsubr
          -175 172 -90 callsubr
        </CharString>
        <CharString name="Uhorndotbelow">
          729 -21 59 747 -20 hstemhm
          146 100 -1 100 -82 100 -92 101 -79 101 198 87 0 91 -79 87 16 91 -73 91 -88 87 hintmask 0000000000010000
          43 callsubr
          hintmask 0100000000001000
          -1 2 -35 callgsubr
          hintmask 0000000000010000
          -3 -2 rlineto
          hintmask 0000000010100000
          -18 -87 2 -2 rlineto
          24 hlineto
          -50 -34 rlineto
          hintmask 1010100101000000
          -60 callgsubr
          hintmask 0001000000000000
          99 463 rlineto
          -100 hlineto
          hintmask 1010100010100000
          -66 callsubr
          hintmask 0000001000000000
          -512 -895 -73 callgsubr
          hintmask 0000010000000000
          -40 callgsubr
        </CharString>
        <CharString name="Uhorngrave">
          729 -21 59 728 -21 40 -20 102 -82 callsubr
          -266 50 -65 callgsubr
        </CharString>
        <CharString name="Uhornhookabove">
          729 -21 59 718 -21 50 -20 182 -82 callsubr
          -231 174 -101 callsubr
        </CharString>
        <CharString name="Uhorntilde">
          729 -21 59 697 68 callgsubr
          146 100 -1 100 -82 100 229 87 0 91 -79 87 16 91 -73 91 -88 87 hintmask 0000000000100000
          43 callsubr
          hintmask 0000000000010000
          -1 2 -35 callgsubr
          hintmask 0000000000100000
          -3 -2 rlineto
          hintmask 0000000101000000
          -18 -87 2 -2 rlineto
          24 hlineto
          -50 -34 rlineto
          hintmask 1001011010000000
          -60 callgsubr
          hintmask 0000100000000000
          99 463 rlineto
          -100 hlineto
          hintmask 1001010101000000
          -66 callsubr
          hintmask 0010000000000000
          -160 165 -26 callsubr
          hintmask 0100000000000000
          -64 callgsubr
          hintmask 0010000000000000
          19 -26 -19 15 -28 hhcurveto
          hintmask 0100100000000000
          -69 callsubr
          hintmask 0010000000000000
          11 callgsubr
          hintmask 0100000000000000
          -22 callsubr
          hintmask 0010000000000000
          -62 callsubr
        </CharString>
        <CharString name="Uhungarumlaut">
          -13 callgsubr
          92 -21 167 -20 -9 callsubr
          hintmask 11001110
          -102 callsubr
          hintmask 00110000
          -124 678 -56 callgsubr
        </CharString>
        <CharString name="Umacron">
          -13 callgsubr
          81 70 -9 callsubr
          hintmask 11011100
          -102 callsubr
          hintmask 00100000
          35 521 -74 callsubr
        </CharString>
        <CharString name="Uogonek">
          729 -212 70 121 59 656 -20 hstemhm
          245 101 -87 87 248 87 11 87 hintmask 01110110
          681 234 rmoveto
          98 460 -35 callgsubr
          -98 -461 rlineto
          -134 -29 -103 -61 -86 hhcurveto
          -86 -71 62 132 28 hvcurveto
          99 462 -15 callgsubr
          -98 -460 -30 -139 91 -104 131 -11 rlinecurve
          hintmask 10001100
          -41 -28 -32 -39 -7 -40 6 callsubr
          6 35 34 28 40 23 127 20 119 101 28 131 rrcurveto
          endchar
        </CharString>
        <CharString name="Upsilon">
          826 21 -21 639 76 hstemhm
          177 87 98 101 -22 101 255 87 hintmask 01101000
          884 555 rmoveto
          100 19 -71 60 -83 hhcurveto
          -147 -67 -177 -47 -18 hvcurveto
          -1 hlineto
          65 2 2 159 -140 hhcurveto
          -83 -97 -60 -100 -23 hvcurveto
          87 hlineto
          51 13 43 33 46 hhcurveto
          92 19 -99 -170 -36 hvcurveto
          hintmask 10010000
          -79 -370 rlineto
          101 hlineto
          hintmask 01001100
          79 370 rlineto
          161 34 59 108 96 hhcurveto
          46 29 -33 -51 -9 hvcurveto
          endchar
        </CharString>
        <CharString name="Uring">
          729 -21 59 656 47 74 47 -9 callsubr
          hintmask 11011100
          -102 callsubr
          hintmask 01100000
          -100 544 rmoveto
          -35 -7 -40 -25 callgsubr
          8 39 -89 callgsubr
          endchar
        </CharString>
        <CharString name="Utilde">
          -13 callgsubr
          61 66 -7 66 -9 callsubr
          hintmask 11001110
          -102 callsubr
          hintmask 00010000
          43 626 -94 callgsubr
        </CharString>
        <CharString name="V">
          34 callsubr
          hstem
          840 694 rmoveto
          -87 hlineto
          -192 -307 -10 -17 -151 -241 -19 -50 rlinecurve
          -1 hlineto
          1 51 -49 242 -2 10 -61 312 rcurveline
          -106 hlineto
          140 -37 callgsubr
          101 hlineto
          endchar
        </CharString>
        <CharString name="W">
          1004 88 callsubr
          -91 callsubr
          endchar
        </CharString>
        <CharString name="Wacute">
          1004 -25 callsubr
          92 116 callgsubr
          hintmask 11000000
          -91 callsubr
          hintmask 00110000
          106 867 -90 callsubr
        </CharString>
        <CharString name="Wcircumflex">
          1004 -25 callsubr
          82 -21 134 -20 hstemhm
          hintmask 11000000
          -91 callsubr
          hintmask 00110000
          44 -2 callgsubr
        </CharString>
        <CharString name="Wdieresis">
          1004 99 callsubr
          514 -10 callgsubr
          87 -10 callgsubr
          hintmask 11000000
          -91 callsubr
          hintmask 00101000
          -165 735 50 callgsubr
        </CharString>
        <CharString name="Wgrave">
          1004 -25 callsubr
          92 116 callgsubr
          hintmask 11000000
          -91 callsubr
          hintmask 00110000
          -15 745 -65 callgsubr
        </CharString>
        <CharString name="X">
          3 callgsubr
        </CharString>
        <CharString name="Xi">
          708 0 84 -84 85 230 84 203 85 -84 84 hstemhm
          hintmask 00001000
          785 602 rmoveto
          18 85 rlineto
          -607 hlineto
          hintmask 00010000
          -18 -85 rlineto
          134 hlineto
          hintmask 00001000
          169 1 rlineto
          hintmask 01010000
          170 -1 rlineto
          12 -602 rmoveto
          18 85 rlineto
          -137 hlineto
          hintmask 10000000
          -172 -1 rlineto
          hintmask 01100000
          -173 1 rlineto
          -137 hlineto
          -18 -85 rlineto
          612 315 rmoveto
          18 84 rlineto
          -471 hlineto
          -18 -84 rlineto
          endchar
        </CharString>
        <CharString name="Y">
          34 callsubr
          hstemhm
          305 98 -39 98 hintmask 01010000
          852 694 rmoveto
          -100 hlineto
          -311 -336 -169 336 rlineto
          -121 hlineto
          213 -416 rlineto
          hintmask 10100000
          -59 -278 rlineto
          98 hlineto
          hintmask 01010000
          59 278 rlineto
          endchar
        </CharString>
        <CharString name="Yacute">
          34 callsubr
          92 116 callgsubr
          305 -71 callgsubr
          hintmask 00110000
          267 589 -90 callsubr
        </CharString>
        <CharString name="Ycircumflex">
          34 callsubr
          82 -21 134 -20 hstemhm
          305 -71 callgsubr
          hintmask 00110000
          205 457 -75 callsubr
        </CharString>
        <CharString name="Ydieresis">
          708 99 callsubr
          305 98 -39 98 -95 -10 callgsubr
          87 -10 callgsubr
          hintmask 0100100000000000
          852 694 rmoveto
          -100 hlineto
          -311 -336 -169 336 rlineto
          -121 hlineto
          213 -416 rlineto
          hintmask 1001000000000000
          -59 -278 rlineto
          98 hlineto
          hintmask 0100100000000000
          59 278 rlineto
          hintmask 0010001000000000
          -4 457 -50 callsubr
          hintmask 0010010010000000
          -61 callsubr
          hintmask 0010000100000000
          -11 callsubr
          endchar
        </CharString>
        <CharString name="Ydotbelow">
          708 21 -21 694 113 callsubr
          -79 -71 callgsubr
          hintmask 00010000
          -100 -478 -27 callgsubr
        </CharString>
        <CharString name="Ygrave">
          34 callsubr
          92 116 callgsubr
          305 -71 callgsubr
          hintmask 00110000
          146 467 -65 callgsubr
        </CharString>
        <CharString name="Yhookabove">
          34 callsubr
          82 -21 212 -20 hstemhm
          305 -71 callgsubr
          hintmask 00110000
          181 591 -101 callsubr
        </CharString>
        <CharString name="Ytilde">
          34 callsubr
          61 68 callgsubr
          305 -71 callgsubr
          hintmask 00010000
          252 582 -94 callgsubr
        </CharString>
        <CharString name="Z">
          64 callsubr
          hstem
          59 536 vstem
          -71 callsubr
          endchar
        </CharString>
        <CharString name="Zacute">
          64 callsubr
          67 callsubr
          59 536 hintmask 11001000
          -71 callsubr
          hintmask 00110000
          640 867 -90 callsubr
        </CharString>
        <CharString name="Zcaron">
          64 callsubr
          107 callgsubr
          59 536 hintmask 11001000
          -71 callsubr
          hintmask 00110000
          607 869 -80 callgsubr
        </CharString>
        <CharString name="Zdotaccent">
          64 callsubr
          41 101 hstemhm
          59 536 -165 101 -79 101 hintmask 11010000
          -71 callsubr
          hintmask 00100100
          472 735 -73 callgsubr
          hintmask 00101000
          -40 callgsubr
        </CharString>
        <CharString name="Zdotbelow">
          64 callsubr
          hstemhm
          59 536 -364 101 -79 101 hintmask 11100000
          -71 callsubr
          hintmask 00001000
          273 -200 -49 callgsubr
        </CharString>
        <CharString name="Zeta">
          64 callsubr
          hstem
          59 536 vstem
          -71 callsubr
          endchar
        </CharString>
        <CharString name="a">
          -68 callsubr
          hstem
          -107 callgsubr
          endchar
        </CharString>
        <CharString name="aacute">
          -68 callsubr
          89 -21 167 -20 -107 callsubr
          hintmask 00011000
          163 503 -74 callgsubr
        </CharString>
        <CharString name="abreve">
          -68 callsubr
          61 73 109 -20 -107 callsubr
          hintmask 00011000
          195 511 0 callgsubr
        </CharString>
        <CharString name="abreveacute">
          -68 callsubr
          61 73 266 -20 -107 callsubr
          hintmask 00011000
          195 511 -98 callsubr
          74 -70 90 hhcurveto
          91 101 28 callgsubr
          -3 157 -90 callsubr
        </CharString>
        <CharString name="abrevedotbelow">
          -68 callsubr
          61 73 109 -20 hstemhm
          162 101 -79 101 hintmask 11111000
          -107 callgsubr
          195 511 -98 callsubr
          74 -70 90 hhcurveto
          91 101 28 callgsubr
          hintmask 00000010
          -322 -902 -73 callgsubr
          hintmask 00000100
          -40 callgsubr
        </CharString>
        <CharString name="abrevegrave">
          -68 callsubr
          61 73 109 -20 -107 callsubr
          hintmask 00011000
          195 511 -98 callsubr
          74 -70 90 hhcurveto
          91 101 28 callgsubr
          -29 35 -11 callgsubr
        </CharString>
        <CharString name="abrevehookabove">
          -68 callsubr
          61 73 124 73 139 -20 -107 callsubr
          hintmask 00011100
          195 511 -98 callsubr
          74 -70 90 hhcurveto
          91 101 28 callgsubr
          -44 149 75 callsubr
          -30 hvcurveto
          -1 -1 -94 callsubr
          8 -6 0 12 callgsubr
        </CharString>
        <CharString name="abrevetilde">
          -68 callsubr
          61 73 164 66 -7 66 -107 callsubr
          hintmask 00010100
          195 511 -98 callsubr
          74 -70 90 hhcurveto
          91 101 28 callgsubr
          34 180 -26 callsubr
          hintmask 00001000
          -32 -7 -44 callsubr
          -10 -31 callsubr
        </CharString>
        <CharString name="acaron">
          -68 callsubr
          87 102 callsubr
          -107 callsubr
          hintmask 00011000
          169 506 -76 callgsubr
        </CharString>
        <CharString name="acircumflex">
          -68 callsubr
          87 102 callsubr
          -107 callsubr
          hintmask 00011000
          133 334 -84 callgsubr
          endchar
        </CharString>
        <CharString name="acircumflexacute">
          -68 callsubr
          87 -21 291 -43 callgsubr
          107 291 10 callgsubr
        </CharString>
        <CharString name="acircumflexdotbelow">
          -68 callsubr
          87 102 callsubr
          hstemhm
          162 101 -79 101 hintmask 11111000
          -107 callgsubr
          133 334 -84 callgsubr
          hintmask 00000010
          -201 -725 -73 callgsubr
          hintmask 00000100
          -40 callgsubr
        </CharString>
        <CharString name="acircumflexgrave">
          -68 callsubr
          87 -21 134 -43 callgsubr
          82 169 rmoveto
          -89 hlineto
          -172 122 rlineto
          111 hlineto
          endchar
        </CharString>
        <CharString name="acircumflexhookabove">
          -68 callsubr
          87 -21 361 -43 callgsubr
          170 283 -104 callgsubr
        </CharString>
        <CharString name="acircumflextilde">
          -68 callsubr
          87 -21 189 66 -7 66 -107 callsubr
          hintmask 00010100
          55 callgsubr
          145 314 -26 callsubr
          hintmask 00001000
          -32 -7 -17 -27 -28 hhcurveto
          -25 -22 17 8 -9 -31 callsubr
        </CharString>
        <CharString name="acute">
          531 548 32 callgsubr
          563 694 -74 callgsubr
        </CharString>
        <CharString name="acute.cap">
          531 516 121 callsubr
          hstem
          587 617 -90 callsubr
        </CharString>
        <CharString name="acute.dup">
          531 548 32 callgsubr
          563 694 -74 callgsubr
        </CharString>
        <CharString name="acute.ts1">
          531 555 -21 179 -20 hstem
          594 713 rmoveto
          -86 hlineto
          -131 -131 -46 -48 rlineto
          65 hlineto
          endchar
        </CharString>
        <CharString name="adblgrave">
          -68 callsubr
          89 -21 167 -20 -107 callsubr
          hintmask 00011000
          129 336 -86 callsubr
        </CharString>
        <CharString name="adieresis">
          -68 callsubr
          106 91 hstemhm
          247 -8 callgsubr
          hintmask 11100100
          -107 callgsubr
          hintmask 00010100
          -52 374 50 callsubr
        </CharString>
        <CharString name="adotbelow">
          -68 callsubr
          hstemhm
          162 101 -79 101 hintmask 11100000
          -107 callgsubr
          hintmask 00001000
          -127 -391 -49 callgsubr
        </CharString>
        <CharString name="ae">
          41 callsubr
          hstemhm
          hintmask 10101010
          -70 callsubr
          hintmask 01010100
          -29 callgsubr
          hintmask 00100000
          61 callgsubr
          endchar
        </CharString>
        <CharString name="ae.dup">
          41 callsubr
          hstemhm
          hintmask 10101010
          -70 callsubr
          hintmask 01010100
          -29 callgsubr
          hintmask 00100000
          61 callgsubr
          endchar
        </CharString>
        <CharString name="aeacute">
          41 callsubr
          89 42 callgsubr
          hintmask 1010101000000000
          -70 callsubr
          hintmask 0101010000000000
          -29 callgsubr
          hintmask 0010000000000000
          61 callgsubr
          hintmask 0000000110000000
          308 570 -74 callgsubr
        </CharString>
        <CharString name="agrave">
          -68 callsubr
          89 -21 167 -20 -107 callsubr
          hintmask 00011000
          52 336 -45 callgsubr
        </CharString>
        <CharString name="ahookabove">
          -68 callsubr
          67 -21 212 -20 -107 callsubr
          hintmask 00011000
          105 448 -104 callgsubr
        </CharString>
        <CharString name="amacron">
          -68 callsubr
          117 70 -107 callsubr
          hintmask 00010000
          179 385 -74 callsubr
        </CharString>
        <CharString name="ampersand">
          806 -21 69 601 66 hstem
          164 87 30 87 133 74 vstem
          745 -6 rmoveto
          15 73 rlineto
          -16 -56 -44 -3 -27 hhcurveto
          -21 -39 2 32 -43 hvcurveto
          61 40 115 97 84 168 -63 19 rcurveline
          -72 -140 -89 -87 -80 -53 -32 38 -58 85 -28 92 87 61 103 72 17 82 rrcurveto
          79 17 -38 80 -82 hhcurveto
          -92 -76 -96 -107 -23 hvcurveto
          -11 -52 -1 -54 9 -55 -89 -60 rcurveline
          -40 -28 -57 -38 -16 -76 rrcurveto
          -93 -20 67 -77 112 hhcurveto
          49 81 10 48 92 hvcurveto
          -54 66 62 -4 34 hhcurveto
          17 50 1 14 59 hvcurveto
          -244 563 rmoveto
          -7 -35 -31 -43 -109 -75 -7 65 5 49 7 32 rrcurveto
          63 13 46 36 39 hhcurveto
          49 2 -59 -33 -7 hvcurveto
          -92 -473 rmoveto
          -33 -73 -63 -3 -22 hhcurveto
          -77 -20 62 46 10 hvcurveto
          12 58 35 22 82 53 22 -76 58 -86 36 -43 rrcurveto
          endchar
        </CharString>
        <CharString name="anglearc">
          826 -83 -21 708 -20 hstemhm
          596 46 0 46 -41 46 hintmask 00010000
          771 23 rmoveto
          2 10 -4 9 -9 3 -128 47 rcurveline
          25 51 20 53 11 54 12 54 3 53 -4 51 148 47 rcurveline
          10 3 8 9 2 10 4 16 -14 11 -15 -5 rrcurveto
          hintmask 11101000
          -149 -48 -9 52 -18 48 -26 44 rlinecurve
          6 -2 -7 3 -7 hhcurveto
          -13 -12 -10 -13 -3 hvcurveto
          -1 -5 1 -5 3 -4 23 -40 16 -44 9 -47 -514 -164 rcurveline
          -11 -3 -8 -9 -2 -10 -2 -10 4 -9 9 -3 445 -164 rcurveline
          -29 -47 -35 -44 -40 -40 -4 -4 -3 -5 -1 -5 rrcurveto
          37 callgsubr
          7 8 3 6 5 hvcurveto
          44 44 38 48 31 52 129 -48 rcurveline
          13 -5 18 11 4 16 rrcurveto
          -129 227 rmoveto
          -10 -49 -17 -48 -24 -46 -385 143 rcurveline
          446 143 4 -46 -3 -48 -11 -49 rlinecurve
          endchar
        </CharString>
        <CharString name="angleleft">
          95 callgsubr
          305 -227 rmoveto
          3 13 -6 16 -3 11 -76 413 rcurveline
          -1 7 -4 10 1 8 1 4 3 4 3 4 12 20 rcurveline
          238 391 9 15 19 22 4 16 rlinecurve
          13 2 -7 11 -13 hhcurveto
          hintmask 11000000
          -6 -1 -12 -2 -6 -11 -6 -10 rlinecurve
          -14 -22 -86 -139 -133 -219 -39 -63 -6 -10 -9 -12 -3 -11 rlinecurve
          -4 -20 13 -35 4 -26 69 -369 rcurveline
          4 -25 rlineto
          -12 3 4 -13 15 hhcurveto
          12 13 12 10 2 hvcurveto
          endchar
        </CharString>
        <CharString name="angleright">
          95 callgsubr
          348 251 rmoveto
          2 10 -3 11 -2 9 -79 422 rcurveline
          -2 12 rlineto
          15 -2 -1 21 -18 hhcurveto
          hintmask 11000000
          -7 -1 rlineto
          -11 -9 -13 -8 -2 hvcurveto
          -3 -12 6 -13 2 -10 29 -165 rcurveline
          37 -195 3 -19 4 -18 3 -19 rlinecurve
          1 -8 5 -10 -2 -9 rrcurveto
          -4 -3 -4 -3 -4 vhcurveto
          -11 -19 -236 -387 -11 -17 -19 -24 -4 -17 rlinecurve
          -13 -3 5 -11 15 hhcurveto
          2 hlineto
          20 2 11 27 9 15 260 424 rcurveline
          6 10 9 11 2 11 rrcurveto
          endchar
        </CharString>
        <CharString name="aogonek">
          510 -10 66 -56 56 339 64 -54 callsubr
          endchar
        </CharString>
        <CharString name="aogonekacute">
          510 -10 66 -56 56 339 64 89 -21 167 -20 -54 callsubr
          hintmask 00011000
          163 503 -74 callgsubr
        </CharString>
        <CharString name="aring">
          -68 callsubr
          58 47 74 47 -107 callsubr
          hintmask 00011000
          45 410 rmoveto
          -35 -8 -39 -25 callgsubr
          7 40 -89 callgsubr
          endchar
        </CharString>
        <CharString name="aringacute">
          -68 callsubr
          58 47 74 47 157 -20 -107 callsubr
          hintmask 00011100
          45 410 rmoveto
          -35 -8 -39 -25 callgsubr
          7 40 -89 callgsubr
          75 242 -90 callsubr
        </CharString>
        <CharString name="asciicircum">
          556 583 -21 123 59 hstem
          119 566 vstem
          685 584 rmoveto
          -249 160 -317 -160 6 -22 298 123 245 -123 rlineto
          endchar
        </CharString>
        <CharString name="asciitilde">
          556 193 117 callgsubr
          617 290 6 callgsubr
          26 -17 -20 30 49 callgsubr
        </CharString>
        <CharString name="asciitilde.low">
          556 0 117 callgsubr
          576 97 6 callgsubr
          25 -17 -20 31 49 callgsubr
        </CharString>
        <CharString name="asterisk">
          531 327 94 callgsubr
          hstem
          194 76 30 76 2 76 vstem
          555 437 rmoveto
          5 22 -13 7 -11 6 -100 56 rcurveline
          124 56 13 6 16 7 5 22 rlinecurve
          26 5 -19 14 -16 hhcurveto
          -10 -7 -4 -7 -11 hvcurveto
          -119 -69 37 133 rlineto
          28 6 -21 10 -15 hhcurveto
          -15 -25 -10 -28 -6 hvcurveto
          -19 -133 -89 69 rlineto
          7 -9 -5 4 -10 hhcurveto
          -16 -25 -14 -26 -5 hvcurveto
          -5 -22 12 -7 11 -6 100 -56 rcurveline
          -124 -56 -13 -6 -15 -7 -5 -22 rlinecurve
          -26 -6 19 -14 16 hhcurveto
          9 2 0 16 26 hvcurveto
          33 18 9 7 68 39 -37 -133 rcurveline
          -28 -6 21 -10 15 hhcurveto
          15 25 10 28 6 hvcurveto
          1 9 18 124 90 -69 rlineto
          -7 8 5 -4 10 hhcurveto
          16 25 14 26 6 hvcurveto
          endchar
        </CharString>
        <CharString name="asterisk.math">
          531 50 94 callgsubr
          hstemhm
          181 72 -66 72 -71 72 -32 72 -55 72 2 72 -54 72 -32 72 -71 72 hintmask 0000000010000000
          496 161 rmoveto
          6 28 -29 8 -18 11 -46 26 rcurveline
          hintmask 0000000001000000
          -10 5 -11 7 -11 4 rrcurveto
          hintmask 0000000000100000
          1 2 12 4 14 7 12 5 rlinecurve
          57 26 23 11 33 8 5 28 rlinecurve
          20 5 -12 20 -22 hhcurveto
          -1 hlineto
          -17 -17 -13 -9 -15 hvcurveto
          -97 -57 rlineto
          hintmask 0100010100000000
          13 38 10 41 10 39 3 12 rcurveline
          18 4 -4 23 -27 hhcurveto
          -20 -22 -14 -23 -5 hvcurveto
          -1 -4 -1 -5 -4 vvcurveto
          -4 -30 rlineto
          -6 -29 -8 -33 -29 vvcurveto
          -73 57 rlineto
          hintmask 0000100000000000
          9 -11 -11 13 -17 hhcurveto
          hintmask 0001000000000000
          -1 hlineto
          -22 -20 -20 -20 -5 hvcurveto
          hintmask 0010000000000000
          -5 -28 29 -8 17 -11 rrcurveto
          hintmask 0000010000000000
          47 -26 rlineto
          hintmask 0000100000000000
          10 -5 10 -7 12 -4 rrcurveto
          hintmask 0001000000000000
          -1 -2 -13 -4 -13 -7 -12 -5 rlinecurve
          -58 -26 -22 -11 -33 -8 -6 -28 rlinecurve
          -20 -4 12 -20 22 hhcurveto
          1 hlineto
          hintmask 0010000000000000
          17 16 13 9 15 hvcurveto
          98 57 -13 -29 -6 -33 -7 -29 rlinecurve
          hintmask 1000001100000000
          -8 -30 -2 -4 -1 -5 -1 -4 rlinecurve
          -23 -5 16 -14 20 hhcurveto
          27 14 23 18 4 hvcurveto
          2 12 rlineto
          hintmask 0000000010000000
          7 39 7 41 4 38 72 -57 rcurveline
          hintmask 0000000001000000
          -9 11 12 -13 17 hhcurveto
          hintmask 0000000000100000
          1 hlineto
          22 20 20 20 4 hvcurveto
          endchar
        </CharString>
        <CharString name="at">
          708 -10 66 64 66 322 66 64 66 hstem
          133 81 115 81 vstem
          667 88 rmoveto
          -54 hlineto
          -15 -2 0 -4 -9 hvcurveto
          -17 -53 -53 -11 -53 hhcurveto
          -161 -86 136 155 33 hvcurveto
          168 35 157 123 140 hhcurveto
          28 64 -7 -80 16 hvcurveto
          16 -24 -30 7 -26 hhcurveto
          -107 -111 -100 42 callsubr
          -130 -28 73 -97 103 hhcurveto
          78 132 63 178 38 hvcurveto
          101 21 45 242 -230 hhcurveto
          -190 -196 -157 -200 -42 hvcurveto
          -198 -42 126 -159 193 hhcurveto
          92 94 38 60 71 hvcurveto
          -26 259 rmoveto
          -95 -20 -70 -66 -59 hhcurveto
          -62 -40 69 92 20 hvcurveto
          95 20 70 66 59 hhcurveto
          62 39 -69 -92 -19 hvcurveto
          endchar
        </CharString>
        <CharString name="atilde">
          -68 callsubr
          89 66 -7 66 -107 callsubr
          hintmask 00001000
          185 482 -4 callgsubr
        </CharString>
        <CharString name="b">
          62 callsubr
          240 -20 hstemhm
          85 87 25 87 -51 84 155 87 hintmask 11110110
          69 callgsubr
          64 297 rlineto
          -84 hlineto
          -148 -694 59 callgsubr
          hintmask 11001010
          20 callsubr
        </CharString>
        <CharString name="backslash">
          531 750 -20 hstem
          423 -227 rmoveto
          0 1 6 -2 12 vhcurveto
          -161 935 rlineto
          12 -2 -2 12 -16 hhcurveto
          -13 -12 -10 -13 -2 hvcurveto
          0 -2 -6 3 -12 vhcurveto
          160 -935 rlineto
          -12 2 2 -12 16 hhcurveto
          13 12 10 13 3 hvcurveto
          endchar
        </CharString>
        <CharString name="baht">
          708 0 59 269 66 241 59 hstemhm
          296 70 -55 70 -57 70 79 70 hintmask 10101010
          688 188 rmoveto
          19 88 -78 71 -108 16 109 25 83 60 16 72 18 87 -86 77 -133 9 15 71 rcurveline
          -70 hlineto
          -14 -70 rlineto
          -211 -76 callsubr
          211 hlineto
          hintmask 00010000
          -15 -70 rlineto
          70 hlineto
          hintmask 11101000
          15 70 rlineto
          4 hlineto
          148 134 88 100 21 hvcurveto
          -47 331 rmoveto
          -12 -56 -73 -49 -90 -15 49 232 rcurveline
          83 -14 55 -45 -12 -53 rrcurveto
          -246 -125 rmoveto
          -117 hlineto
          51 241 rlineto
          117 hlineto
          151 -446 rmoveto
          hintmask 11000100
          -14 -68 -90 -53 -99 -8 56 265 rcurveline
          100 -13 61 -57 -14 -66 rrcurveto
          -273 -130 rmoveto
          -117 hlineto
          57 269 rlineto
          hintmask 01001000
          117 hlineto
          hintmask 10000100
          endchar
        </CharString>
        <CharString name="bar">
          295 750 -20 hstem
          79 46 151 46 vstem
          125 -214 rmoveto
          -3 callsubr
          endchar
        </CharString>
        <CharString name="bigcircle">
          33 callgsubr
          608 -85 callsubr
          endchar
        </CharString>
        <CharString name="blanksymbol">
          62 callsubr
          174 66 hstemhm
          85 87 25 87 -51 84 -34 84 -50 84 71 87 hintmask 0100001000000000
          69 callgsubr
          30 139 rlineto
          hintmask 0000000100000000
          118 84 rlineto
          hintmask 0010001000000000
          -34 53 -65 -45 rlineto
          hintmask 0010000100000000
          15 66 rlineto
          hintmask 1011010010000000
          -84 hlineto
          -30 -137 -100 -71 34 -53 47 33 -99 -466 59 callgsubr
          hintmask 1100100010000000
          20 callsubr
        </CharString>
        <CharString name="braceleft">
          92 callgsubr
          405 -236 rmoveto
          13 3 -10 1 -5 hhcurveto
          -82 5 -31 37 -4 41 -1 9 1 2 7 36 32 150 rcurveline
          21 95 2 14 -18 30 -8 11 -15 23 -56 19 123 36 13 62 10 48 32 150 rcurveline
          20 93 3 16 33 26 34 27 39 12 40 2 13 1 8 0 2 13 rrcurveto
          14 3 -10 0 -13 hhcurveto
          -108 -105 -49 -77 -17 hvcurveto
          -50 -234 -6 -29 -7 -32 -43 -30 rlinecurve
          -25 -18 -35 -14 -44 -3 -12 -1 -8 0 -3 -13 rrcurveto
          -13 -3 10 -1 5 hhcurveto
          98 -6 17 -54 2 -25 1 -12 -2 -6 -6 -31 -44 -204 rcurveline
          -6 -30 -9 -44 47 -36 rrcurveto
          -34 46 73 -4 22 hhcurveto
          13 10 0 14 3 hvcurveto
          endchar
        </CharString>
        <CharString name="braceright">
          92 callgsubr
          508 250 rmoveto
          13 3 -10 1 -5 hhcurveto
          -111 6 -9 71 5 27 50 234 rcurveline
          7 31 9 43 -49 36 rrcurveto
          31 -40 -68 7 -32 hhcurveto
          -13 -11 0 -14 -3 hvcurveto
          -13 -2 9 -1 5 hhcurveto
          69 -4 45 -27 4 -52 1 -9 -1 -2 -7 -36 -32 -150 rcurveline
          -7 -32 -11 -51 -14 vvcurveto
          3 -49 40 -30 49 -16 -122 -34 -14 -67 -10 -45 -32 -150 rcurveline
          -7 -32 -10 -51 -6 -11 -28 -55 -65 -24 -54 -3 -12 -1 -8 0 -3 -13 rrcurveto
          -14 -3 11 0 13 hhcurveto
          106 107 48 78 18 hvcurveto
          49 234 7 29 6 32 44 30 rlinecurve
          42 30 44 4 16 1 12 1 8 0 3 13 rrcurveto
          endchar
        </CharString>
        <CharString name="bracketleft">
          309 -250 66 868 66 hstem
          232 -250 rmoveto
          14 66 rlineto
          -98 hlineto
          184 868 rlineto
          98 hlineto
          14 66 rlineto
          -178 hlineto
          -212 -1000 rlineto
          endchar
        </CharString>
        <CharString name="bracketright">
          309 -250 66 868 66 hstem
          148 -250 rmoveto
          212 1000 rlineto
          -178 hlineto
          -14 -66 rlineto
          98 hlineto
          -184 -868 rlineto
          -98 hlineto
          -14 -66 rlineto
          endchar
        </CharString>
        <CharString name="breve">
          116 callsubr
          109 23 callgsubr
          endchar
        </CharString>
        <CharString name="breve.cap">
          531 495 73 109 -20 hstem
          25 callgsubr
          endchar
        </CharString>
        <CharString name="breve.ts1">
          649 519 73 121 -20 hstem
          237 66 346 66 vstem
          715 713 -26 callsubr
          -84 -20 -101 -37 -79 hhcurveto
          -76 -86 38 83 16 hvcurveto
          -66 hlineto
          -126 -27 113 -68 110 hhcurveto
          115 140 71 123 27 hvcurveto
          endchar
        </CharString>
        <CharString name="brokenbar">
          295 750 -20 hstemhm
          79 46 32 46 -6 46 33 46 hintmask 10011000
          243 343 rmoveto
          79 371 rlineto
          14 3 4 22 -23 hhcurveto
          -23 -4 -22 -14 -3 hvcurveto
          -79 -371 rlineto
          -18 -4 4 -17 15 hhcurveto
          15 12 17 18 4 hvcurveto
          -118 -557 rmoveto
          hintmask 01100000
          78 371 rlineto
          18 4 -4 17 -15 hhcurveto
          -15 -12 -17 -18 -4 hvcurveto
          -78 -371 rlineto
          -14 -3 -5 -22 23 hhcurveto
          23 5 22 14 3 hvcurveto
          endchar
        </CharString>
        <CharString name="bullet">
          826 117 288 hstemhm
          294 288 -227 288 hintmask 10100000
          582 117 rmoveto
          35 callsubr
          -288 hlineto
          hintmask 11000000
          -61 -288 rlineto
          endchar
        </CharString>
        <CharString name="c">
          48 callgsubr
          hstem
          83 87 vstem
          -82 callgsubr
          endchar
        </CharString>
        <CharString name="cacute">
          48 callgsubr
          89 42 callgsubr
          83 87 hintmask 11001000
          -82 callgsubr
          hintmask 00110000
          108 658 -74 callgsubr
        </CharString>
        <CharString name="caron">
          531 73 callgsubr
          569 697 -76 callgsubr
        </CharString>
        <CharString name="caron.cap">
          89 callgsubr
          134 -20 hstem
          554 619 -80 callgsubr
        </CharString>
        <CharString name="caron.ts1">
          649 509 -21 246 -20 hstem
          661 734 rmoveto
          -65 -2 -153 -175 rlineto
          -2 hlineto
          -77 175 -19 2 rlineto
          -46 hlineto
          6 -24 11 -22 9 -22 61 -161 rcurveline
          -8 4 -1 -9 14 hhcurveto
          50 hlineto
          16 6 15 11 8 hvcurveto
          45 52 43 56 42 53 17 19 17 20 14 20 rrcurveto
          endchar
        </CharString>
        <CharString name="ccaron">
          48 callgsubr
          87 102 callsubr
          hstemhm
          83 87 hintmask 11001000
          -82 callgsubr
          hintmask 00110000
          114 661 -76 callgsubr
        </CharString>
        <CharString name="ccedilla">
          48 callgsubr
          hstem
          83 87 vstem
          -82 callgsubr
          -148 -80 -1 callgsubr
        </CharString>
        <CharString name="ccircumflex">
          48 callgsubr
          87 102 callsubr
          hstemhm
          83 87 hintmask 11001000
          -82 callgsubr
          hintmask 00110000
          78 489 -84 callgsubr
          endchar
        </CharString>
        <CharString name="cdotaccent">
          48 callgsubr
          101 101 hstemhm
          83 87 158 101 -80 101 hintmask 11010000
          -82 callgsubr
          hintmask 00100100
          -20 524 96 callgsubr
        </CharString>
        <CharString name="cedilla">
          472 -170 -21 168 -20 hstem
          293 -23 -1 callgsubr
        </CharString>
        <CharString name="cedilla.dup">
          472 -170 -21 168 -20 hstem
          293 -23 -1 callgsubr
        </CharString>
        <CharString name="cent">
          472 390 69 hstemhm
          83 87 40 70 26 87 -85 70 -44 70 hintmask 00001000
          449 36 rmoveto
          9 73 -49 -27 -49 -18 -52 -4 rlinecurve
          70 329 52 -3 27 -14 39 -28 rlinecurve
          28 72 rlineto
          hintmask 10010000
          -48 27 -23 13 -60 3 rrcurveto
          hintmask 01100100
          11 55 rlineto
          -70 hlineto
          -12 -59 -126 -23 -91 -107 -22 -103 rlinecurve
          -23 -109 55 -99 109 -20 -14 -64 rcurveline
          70 hlineto
          13 61 59 5 55 18 42 22 rlinecurve
          -210 29 rmoveto
          -61 20 -23 64 15 74 rrcurveto
          hintmask 00010000
          14 65 44 73 78 22 rrcurveto
          endchar
        </CharString>
        <CharString name="cent.oldstyle">
          48 callgsubr
          hstem
          83 87 9 87 vstem
          449 36 rmoveto
          9 73 rlineto
          -32 -57 -57 -18 -62 hhcurveto
          -12 -12 1 3 -11 hvcurveto
          166 322 32 -6 22 -14 29 -21 rlinecurve
          28 72 -30 17 -20 12 -28 7 rlinecurve
          32 62 rlineto
          -73 hlineto
          -27 -55 rlineto
          -8 hlineto
          -150 -112 -121 -116 -25 hvcurveto
          -17 -82 27 -76 61 -42 -48 -92 rcurveline
          73 hlineto
          34 66 rlineto
          -4 16 18 -2 19 hhcurveto
          70 64 21 25 49 hvcurveto
          -107 354 rmoveto
          -150 -293 -25 30 -7 46 10 50 rlinecurve
          16 74 55 86 101 7 rrcurveto
          endchar
        </CharString>
        <CharString name="centigrade">
          915 -20 70 -19 46 382 46 71 70 0 49 -49 70 -67 46 hstemhm
          377 101 hintmask 01000000
          870 42 rmoveto
          5 24 -1 23 4 24 -23 -11 -21 -14 -24 -11 rrcurveto
          hintmask 10001001
          -21 -45 -48 -6 -45 hhcurveto
          -165 -60 154 143 31 hvcurveto
          142 30 120 157 171 hhcurveto
          39 -1 38 -8 33 -16 18 -9 15 -12 16 -10 36 91 rcurveline
          hintmask 10000101
          21 -61 -59 14 -69 hhcurveto
          -201 -186 -175 -194 -41 hvcurveto
          -188 -40 103 -179 212 hhcurveto
          hintmask 01110010
          74 54 15 36 79 hvcurveto
          4 3 5 1 2 7 rrcurveto
          -512 534 rmoveto
          59 13 -32 60 -76 hhcurveto
          -8 hlineto
          -63 -7 -56 -50 -13 -60 rrcurveto
          -59 -13 33 -60 76 hhcurveto
          8 hlineto
          62 7 57 50 12 60 rrcurveto
          -45 1 rmoveto
          -38 -8 -42 -34 -38 hhcurveto
          -2 hlineto
          -35 1 -23 29 2 35 2 7 rcurveline
          38 8 41 34 38 hhcurveto
          2 hlineto
          36 -1 23 -29 -3 -35 rrcurveto
          endchar
        </CharString>
        <CharString name="circumflex">
          531 73 callgsubr
          533 525 -84 callgsubr
          endchar
        </CharString>
        <CharString name="circumflex.cap">
          89 callgsubr
          134 -20 hstem
          525 485 -75 callsubr
        </CharString>
        <CharString name="circumflex.dup">
          531 73 callgsubr
          533 525 -84 callgsubr
          endchar
        </CharString>
        <CharString name="colon">
          295 0 90 264 90 hstemhm
          102 90 -71 90 -34 90 -71 90 hintmask 01000100
          267 354 67 callgsubr
          hintmask 01001000
          -19 -90 rlineto
          15 -354 rmoveto
          hintmask 10010000
          28 callsubr
          hintmask 10100000
          -19 -90 rlineto
          endchar
        </CharString>
        <CharString name="colonmonetary">
          110 callgsubr
          73 70 32 70 20 70 93 callsubr
          -13 hlineto
          127 598 rlineto
          9 hlineto
          82 callsubr
          -11 hlineto
          18 84 rlineto
          -70 hlineto
          -20 -93 -172 -39 -139 -154 -35 -166 rlinecurve
          -35 -164 71 -156 157 -39 -19 -93 rcurveline
          70 hlineto
          18 84 rlineto
          12 hlineto
          87 43 13 43 86 hvcurveto
          -281 28 rmoveto
          -99 41 -35 122 26 121 27 129 92 116 110 40 rrcurveto
          endchar
        </CharString>
        <CharString name="comma">
          295 -107 -21 128 90 hstemhm
          102 90 -71 90 hintmask 01010000
          192 1 17 callgsubr
          hintmask 11100000
          -19 -2 callsubr
        </CharString>
        <CharString name="copyleft">
          33 callgsubr
          608 -85 callsubr
          -123 hmoveto
          111 23 -60 102 -121 hhcurveto
          -28 -38 -3 -17 -50 hvcurveto
          -1 -52 rlineto
          19 32 33 13 46 hhcurveto
          84 42 -80 -93 -20 hvcurveto
          -86 -19 -71 -86 -93 hhcurveto
          -48 -23 8 28 -35 hvcurveto
          -14 -44 rlineto
          -25 40 23 -7 50 hhcurveto
          123 102 103 109 23 hvcurveto
          endchar
        </CharString>
        <CharString name="copyright">
          33 callgsubr
          239 43 326 -85 callsubr
          -202 -180 rmoveto
          6 44 rlineto
          -28 -46 -27 -8 -49 hhcurveto
          -92 -35 86 86 19 hvcurveto
          93 20 76 80 84 hhcurveto
          45 27 -13 -20 25 hvcurveto
          20 52 rlineto
          18 -44 -36 3 -28 hhcurveto
          -121 -104 -102 -111 -23 hvcurveto
          -109 -23 59 -103 123 hhcurveto
          50 25 7 25 49 hvcurveto
          endchar
        </CharString>
        <CharString name="copyright.alt">
          666 -111 43 580 43 hstem
          47 43 99 64 417 43 vstem
          713 222 rmoveto
          205 44 -101 128 -205 hhcurveto
          -204 -156 -128 -205 -44 hvcurveto
          -204 -43 101 -129 204 hhcurveto
          205 156 129 204 43 hvcurveto
          -43 hmoveto
          -178 -38 -135 -112 -178 hhcurveto
          -178 -89 112 178 38 hvcurveto
          178 38 136 112 178 hhcurveto
          178 88 -112 -178 -38 hvcurveto
          -167 -200 rmoveto
          6 49 rlineto
          -31 -51 -30 -9 -54 hhcurveto
          -102 -39 96 95 20 hvcurveto
          102 22 84 89 94 hhcurveto
          50 30 -14 -21 27 hvcurveto
          22 57 rlineto
          19 -47 -40 4 -32 hhcurveto
          -134 -114 -113 -123 -26 hvcurveto
          -121 -26 65 -114 136 hhcurveto
          56 28 8 27 55 hvcurveto
          endchar
        </CharString>
        <CharString name="currency">
          826 39 46 330 46 hstem
          255 46 330 46 vstem
          663 hmoveto
          19 16 -11 16 -8 10 -60 76 rcurveline
          37 36 27 46 10 50 11 50 -7 46 -22 37 91 75 rcurveline
          12 10 20 16 -14 16 -12 16 -19 -15 -12 -10 -92 -76 rcurveline
          29 -30 -42 17 -50 hhcurveto
          -50 -50 -17 -29 -42 hvcurveto
          -61 76 -8 10 -11 16 -20 -16 rlinecurve
          -20 -17 13 -15 8 -10 59 -77 rcurveline
          -36 -36 -27 -46 -11 -50 -10 -50 7 -46 21 -36 -92 -76 rcurveline
          -12 -10 -20 -16 14 -16 13 -16 18 15 12 10 93 77 rcurveline
          -30 30 42 -17 50 hhcurveto
          50 50 17 29 42 hvcurveto
          60 -76 8 -10 13 -15 19 16 rlinecurve
          -32 250 rmoveto
          -91 -19 -90 -74 -91 hhcurveto
          -91 -58 74 91 19 hvcurveto
          91 19 90 74 91 hhcurveto
          91 58 -74 -91 -19 hvcurveto
          endchar
        </CharString>
        <CharString name="cwm">
          0 endchar
        </CharString>
        <CharString name="cwmascender">
          0 endchar
        </CharString>
        <CharString name="cwmcapital">
          0 endchar
        </CharString>
        <CharString name="d">
          62 callsubr
          240 -20 hstem
          83 87 206 87 64 84 vstem
          -73 callsubr
          endchar
        </CharString>
        <CharString name="dagger">
          472 393 75 0 75 161 -20 hstemhm
          245 75 -57 75 0 75 hintmask 01100100
          503 430 rmoveto
          8 2 2 30 -37 hhcurveto
          -15 -24 -4 -8 -26 hvcurveto
          -28 -7 -18 -4 -17 -2 5 17 5 23 23 60 10 24 21 58 7 34 rrcurveto
          8 2 8 37 -37 hhcurveto
          -38 -8 -36 -9 -2 hvcurveto
          -7 -33 -3 -50 -1 -31 -3 -66 -3 -14 -4 -22 rrcurveto
          hintmask 01001000
          -17 2 -15 4 -22 7 rrcurveto
          6 -21 -25 6 -18 hhcurveto
          -41 -7 -37 0 hvcurveto
          hintmask 10010000
          -8 -2 -2 -30 37 hhcurveto
          15 24 4 8 26 hvcurveto
          28 7 18 4 17 2 -5 -16 -4 -17 -16 -36 -30 -70 -1 -7 -11 -53 -26 -120 -27 -163 -14 -129 rrcurveto
          -15 -2 -1 -7 14 hhcurveto
          7 8 1 12 4 hvcurveto
          5 14 64 209 43 198 rrcurveto
          10 49 2 11 62 vvcurveto
          45 2 10 3 22 vhcurveto
          17 -2 15 111 callsubr
          7 37 0 hvcurveto
          endchar
        </CharString>
        <CharString name="daggerdbl">
          472 -15 75 380 74 190 -20 hstemhm
          160 75 -71 75 3 75 -57 75 3 75 -71 75 hintmask 0111001100000000
          513 477 rmoveto
          20 5 -12 17 -23 hhcurveto
          -24 -26 -6 -8 -28 hvcurveto
          -29 -7 -6 -1 -18 -2 5 20 4 11 17 41 12 29 18 42 5 28 rrcurveto
          43 10 -33 0 -4 hhcurveto
          -12 -27 -4 -39 -9 hvcurveto
          -6 -29 0 -40 -1 -35 1 -36 -2 -12 -3 -19 -15 2 -7 1 -26 7 rrcurveto
          9 -29 -21 5 -23 hhcurveto
          -23 -18 -17 -20 -5 hvcurveto
          -16 -3 3 -21 35 hhcurveto
          11 13 0 14 49 hvcurveto
          29 7 8 1 17 2 -6 -20 -3 -11 -18 -41 -11 -29 -18 -42 -6 -28 rrcurveto
          -43 -9 33 0 4 hhcurveto
          12 27 4 39 8 hvcurveto
          hintmask 1101010010000000
          6 29 1 40 35 vvcurveto
          36 2 12 3 19 vhcurveto
          16 -2 6 -1 25 -7 rrcurveto
          -13 42 13 -1 15 hhcurveto
          32 13 18 19 4 hvcurveto
          -96 -455 rmoveto
          8 1 3 30 -37 hhcurveto
          -15 -25 -4 -8 -26 hvcurveto
          -27 -7 -19 -4 -17 -2 6 21 3 10 18 41 12 31 17 41 6 27 rrcurveto
          43 9 -33 0 -4 hhcurveto
          -12 -27 -4 -39 -8 hvcurveto
          -6 -29 0 -42 -1 -33 rrcurveto
          -36 -2 -12 -3 -19 vhcurveto
          -17 2 -14 4 -23 7 rrcurveto
          6 -21 -24 6 -18 hhcurveto
          -41 -8 -37 0 hvcurveto
          -8 -2 -2 -30 37 hhcurveto
          15 25 4 8 25 hvcurveto
          28 7 19 4 16 2 -5 -21 -3 -10 -18 -41 rrcurveto
          hintmask 1000100010000000
          -13 -31 -16 -41 -6 -27 rrcurveto
          -43 -9 33 0 4 hhcurveto
          12 26 4 39 9 hvcurveto
          6 29 0 42 1 33 rrcurveto
          36 1 12 3 19 vhcurveto
          18 -2 14 111 callsubr
          8 37 0 hvcurveto
          endchar
        </CharString>
        <CharString name="dblbracketleft">
          428 -249 46 908 46 hstem
          213 46 147 46 vstem
          351 -249 rmoveto
          10 46 rlineto
          -102 hlineto
          193 908 rlineto
          102 hlineto
          10 46 rlineto
          -281 hlineto
          -213 -1000 rlineto
          143 98 callgsubr
        </CharString>
        <CharString name="dblbracketright">
          428 -249 46 908 46 hstemhm
          82 46 0 46 101 46 hintmask 01011000
          251 -249 rmoveto
          213 1000 rlineto
          -280 hlineto
          -10 -46 rlineto
          101 hlineto
          hintmask 11101000
          -193 -908 -15 callgsubr
          -10 -46 rlineto
          244 98 callgsubr
        </CharString>
        <CharString name="dblgrave.ts1">
          531 557 -21 177 -20 hstem
          353 536 rmoveto
          93 callgsubr
          242 hmoveto
          93 callgsubr
          endchar
        </CharString>
        <CharString name="dblverticalbar">
          433 750 -20 hstem
          79 46 92 46 13 46 92 46 vstem
          125 -214 rmoveto
          -3 callsubr
          138 hmoveto
          -3 callsubr
          endchar
        </CharString>
        <CharString name="dcaron">
          62 callsubr
          65 -21 115 81 hstem
          83 87 206 87 64 84 vstem
          -73 callsubr
          267 277 -3 callgsubr
        </CharString>
        <CharString name="dcroat">
          62 callsubr
          80 70 90 -20 hstemhm
          83 87 206 87 30 84 -70 84 -64 84 hintmask 0010000100000000
          663 534 rmoveto
          14 70 rlineto
          -86 hlineto
          hintmask 0001000010000000
          20 90 rlineto
          -84 hlineto
          hintmask 0010000100000000
          -20 -90 rlineto
          -160 hlineto
          -14 -70 rlineto
          hintmask 1110111000000000
          160 hlineto
          -29 -133 rlineto
          47 -54 -64 6 -29 hhcurveto
          -105 -102 -105 42 callsubr
          -127 -27 57 -105 103 hhcurveto
          62 64 28 34 45 hvcurveto
          -11 -52 rlineto
          87 hlineto
          114 534 rlineto
          -175 -410 rmoveto
          -41 -33 -44 -27 -48 hhcurveto
          -70 -62 49 116 25 hvcurveto
          125 27 93 42 68 hhcurveto
          40 31 -17 -34 19 hvcurveto
          endchar
        </CharString>
        <CharString name="ddotbelow">
          62 callsubr
          240 -20 hstemhm
          83 87 11 101 -79 101 72 87 64 84 hintmask 11110011
          -73 callsubr
          hintmask 00000100
          -166 -537 -73 callgsubr
          hintmask 00001000
          -40 callgsubr
        </CharString>
        <CharString name="degree">
          398 399 46 203 46 hstem
          168 46 203 46 vstem
          463 547 rmoveto
          81 17 -51 66 -82 hhcurveto
          -81 -81 -66 -81 -17 hvcurveto
          -82 -17 52 -66 81 hhcurveto
          82 80 66 82 17 hvcurveto
          -46 hmoveto
          -56 -12 -55 -46 -56 hhcurveto
          -56 -36 46 56 12 hvcurveto
          56 12 55 45 56 hhcurveto
          56 36 -45 -56 -12 hvcurveto
          endchar
        </CharString>
        <CharString name="diameter">
          826 -83 46 574 46 hstem
          133 46 574 46 vstem
          889 581 rmoveto
          13 3 -8 10 -13 hhcurveto
          -6 -6 -3 -4 -5 hvcurveto
          -116 -95 rlineto
          50 -48 -70 31 -83 hhcurveto
          -184 -181 -149 -184 -39 hvcurveto
          -18 -84 15 -76 39 -59 -117 -96 rcurveline
          -5 -4 -4 -6 -1 -6 rrcurveto
          37 callgsubr
          6 7 3 4 4 hvcurveto
          117 96 rlineto
          -51 48 69 -31 84 hhcurveto
          184 181 149 184 39 hvcurveto
          18 84 -15 77 -38 58 115 96 rcurveline
          5 4 4 6 1 6 rrcurveto
          -136 -331 rmoveto
          -159 -34 -155 -128 -159 hhcurveto
          -71 -59 26 43 -41 hvcurveto
          490 404 32 -50 12 -65 -15 -71 rlinecurve
          -54 219 rmoveto
          -491 -405 -32 50 -12 65 15 71 rlinecurve
          159 34 155 128 159 hhcurveto
          71 60 -26 -42 41 hvcurveto
          endchar
        </CharString>
        <CharString name="died">
          531 -5 -21 387 74 -71 74 181 -20 hstemhm
          216 87 -4 87 -32 87 hintmask 00110010
          548 364 rmoveto
          16 74 rlineto
          -162 hlineto
          39 181 -35 callgsubr
          hintmask 01000100
          -40 -184 rlineto
          -163 hlineto
          -15 -74 rlineto
          163 hlineto
          hintmask 10001000
          -83 -387 rlineto
          87 hlineto
          hintmask 00100100
          83 390 rlineto
          endchar
        </CharString>
        <CharString name="dieresis">
          531 565 91 hstemhm
          257 -8 callgsubr
          hintmask 10100000
          79 callgsubr
          hintmask 11001000
          -56 callsubr
          hintmask 10010000
          -11 callsubr
          endchar
        </CharString>
        <CharString name="dieresis.cap">
          531 485 91 hstemhm
          225 -10 callgsubr
          87 -10 callgsubr
          hintmask 10100000
          316 485 -50 callsubr
          hintmask 11001000
          -61 callsubr
          hintmask 10010000
          -11 callsubr
          endchar
        </CharString>
        <CharString name="dieresis.dup">
          531 565 91 hstemhm
          257 -8 callgsubr
          hintmask 10100000
          79 callgsubr
          hintmask 11001000
          -56 callsubr
          hintmask 10010000
          -11 callsubr
          endchar
        </CharString>
        <CharString name="dieresis.ts1">
          531 593 94 hstemhm
          241 94 -74 94 92 94 -74 94 hintmask 10100000
          335 593 rmoveto
          20 94 rlineto
          -94 hlineto
          hintmask 11001000
          -20 -94 rlineto
          300 hmoveto
          20 94 rlineto
          -94 hlineto
          hintmask 10010000
          -20 -94 rlineto
          endchar
        </CharString>
        <CharString name="discount">
          531 1 137 -136 137 475 137 hstemhm
          109 137 -11 137 99 137 hintmask 10110100
          625 728 rmoveto
          12 2 -6 11 -13 hhcurveto
          -6 -1 -16 -3 -9 -20 -10 -13 rlinecurve
          -83 -112 -375 -512 -14 -18 -27 -31 -4 -16 rlinecurve
          -13 -2 7 -11 14 hhcurveto
          1 hlineto
          27 3 64 105 38 52 165 225 rcurveline
          218 298 10 14 15 14 4 16 rlinecurve
          -268 -81 rmoveto
          hintmask 00101000
          15 71 rlineto
          24 5 -9 9 -19 hhcurveto
          -75 hlineto
          -5 -5 0 -1 -5 hvcurveto
          -16 -4 -5 -13 -3 -14 -17 -77 rcurveline
          hintmask 01110000
          -26 -5 17 -2 16 hhcurveto
          71 hlineto
          20 14 5 28 6 hvcurveto
          100 -611 rmoveto
          -28 -6 -13 -6 -22 hhcurveto
          -76 hlineto
          -15 -12 5 21 5 hvcurveto
          14 67 1 5 0 5 2 6 rlinecurve
          hintmask 10000000
          3 15 10 10 14 2 rrcurveto
          hintmask 01000100
          1 5 5 0 5 hhcurveto
          66 hlineto
          22 12 -6 -28 -6 hvcurveto
          endchar
        </CharString>
        <CharString name="divide">
          826 68 90 69 46 69 90 hstemhm
          382 90 -70 90 -51 90 -71 90 cntrmask 11100000
          hintmask 11100010
          819 250 2 callsubr
          -288 92 67 callgsubr
          hintmask 11100100
          -19 -90 rlineto
          31 -274 rmoveto
          hintmask 11101000
          20 90 rlineto
          -90 hlineto
          hintmask 11110000
          -20 -90 rlineto
          endchar
        </CharString>
        <CharString name="divorced">
          531 -92 -21 142 78 289 77 142 -20 hstemhm
          -85 87 0 76 -11 78 0 84 -31 87 68 87 -33 84 0 78 -11 78 -62 76 -11 78 5 76 hintmask 0010010000000000
          229 251 rmoveto
          110 24 -54 112 -121 hhcurveto
          hintmask 0110001000000000
          -11 hlineto
          -121 -14 -86 -106 -22 -102 rrcurveto
          -108 -23 50 -114 121 hhcurveto
          11 hlineto
          hintmask 0010000100000100
          120 12 90 104 22 106 rrcurveto
          569 hmoveto
          110 24 -51 112 -121 hhcurveto
          hintmask 0110000000101010
          -11 hlineto
          -119 -12 -91 -106 -22 -104 rrcurveto
          -108 -23 54 -114 120 hhcurveto
          hintmask 1101010011010001
          11 hlineto
          122 14 85 105 22 103 rrcurveto
          -513 -364 rmoveto
          155 728 -35 callgsubr
          -155 -728 rlineto
          -53 364 rmoveto
          -70 -15 -49 -74 -79 hhcurveto
          -76 -20 62 67 6 hvcurveto
          hintmask 0010100100000010
          1 5 1 6 1 6 rrcurveto
          71 15 55 72 78 hhcurveto
          78 19 -75 -70 -15 hvcurveto
          577 5 rmoveto
          -1 -7 -2 -7 -2 -7 rrcurveto
          hintmask 0100000000100100
          -68 -21 -48 -60 -74 hhcurveto
          -79 -19 73 70 15 hvcurveto
          hintmask 0010000000001001
          68 15 48 78 82 hhcurveto
          76 25 -72 -68 -15 hvcurveto
          endchar
        </CharString>
        <CharString name="dlinebelow">
          549 -184 70 104 66 332 66 240 -20 hstemhm
          83 87 206 87 64 84 hintmask 01111110
          -73 callsubr
          hintmask 10000000
          -21 -521 -74 callsubr
        </CharString>
        <CharString name="dollar">
          531 -35 -21 50 69 569 69 49 -20 hstemhm
          167 80 -25 63 -38 63 73 63 -53 63 hintmask 0000000100000000
          513 199 rmoveto
          19 88 -38 96 -111 22 49 229 rcurveline
          59 -5 40 -24 31 -29 29 72 rcurveline
          -44 33 -40 17 -61 5 rrcurveto
          hintmask 0001000010000000
          10 47 rlineto
          -63 hlineto
          hintmask 0000100100000000
          -10 -48 -105 -15 -90 -82 -21 -96 rlinecurve
          -13 -60 13 -104 134 -29 -54 -255 rcurveline
          -77 8 -50 32 -31 33 -29 -74 rcurveline
          56 -49 66 -15 50 -5 rrcurveto
          hintmask 1010010000000000
          -10 -47 rlineto
          63 hlineto
          11 49 105 16 91 89 21 101 rlinecurve
          -190 221 rmoveto
          -47 11 -37 40 12 55 10 47 45 45 62 14 rrcurveto
          62 -450 rmoveto
          hintmask 0100001000000000
          -10 -47 -41 -54 -69 -18 51 238 rcurveline
          69 -20 8 -60 -8 -39 rrcurveto
          endchar
        </CharString>
        <CharString name="dollar.oldstyle">
          649 -16 -21 29 70 590 70 29 -20 hstem
          288 63 -63 81 -63 63 cntrmask 00001110
          632 203 rmoveto
          15 72 -33 63 -56 36 -16 11 -20 11 -21 4 52 246 rcurveline
          0 43 -10 25 -10 vhcurveto
          26 -10 37 -23 0 vvcurveto
          29 73 -41 19 -40 20 -47 9 rlinecurve
          -9 2 -8 1 0 vvcurveto
          8 34 rlineto
          -63 hlineto
          -7 -29 rlineto
          -57 hlineto
          7 29 rlineto
          -63 hlineto
          -9 -40 -83 -17 -110 -74 -20 -94 rlinecurve
          -2 -9 -12 -81 55 -59 67 -27 rlinecurve
          9 -3 3 -2 15 -3 -58 -272 rcurveline
          -60 7 -51 32 -48 29 -8 -23 -14 -27 -5 -21 -5 -26 146 -37 15 -3 rrcurveto
          10 -2 5 0 0 vvcurveto
          -8 -36 rlineto
          63 hlineto
          6 29 rlineto
          57 hlineto
          -6 -29 rlineto
          63 hlineto
          9 41 rlineto
          0 39 13 16 7 vhcurveto
          75 34 69 67 16 78 rrcurveto
          -191 213 rmoveto
          -53 16 47 220 rlineto
          57 hlineto
          -164 -206 rmoveto
          -35 15 -50 22 13 63 11 52 63 27 39 14 rrcurveto
          179 -453 rmoveto
          -11 -51 -55 -40 -49 -17 46 217 rcurveline
          36 -19 46 -29 -13 -61 rrcurveto
          -182 -126 rmoveto
          -57 hlineto
          56 264 53 -16 rlineto
          endchar
        </CharString>
        <CharString name="dong">
          549 -70 70 hstem
          637 542 rmoveto
          14 67 -82 -1 19 86 rlineto
          -80 hlineto
          -19 -85 rlineto
          -152 hlineto
          -14 -67 rlineto
          152 hlineto
          -27 -126 rlineto
          44 -51 -61 6 -27 hhcurveto
          -100 -97 -100 -120 -26 hvcurveto
          -121 -25 53 -100 98 hhcurveto
          59 61 27 32 43 hvcurveto
          -11 -49 rlineto
          83 hlineto
          108 507 rlineto
          -48 -612 rmoveto
          15 70 rlineto
          -488 hlineto
          -15 -70 rlineto
          371 223 rmoveto
          -39 -33 -41 -26 -45 hhcurveto
          -67 -59 46 111 24 hvcurveto
          118 25 90 40 64 hhcurveto
          38 28 -16 -32 18 hvcurveto
          endchar
        </CharString>
        <CharString name="dotaccent">
          295 560 101 hstemhm
          216 101 -80 101 hintmask 10100000
          317 560 rmoveto
          21 -55 callsubr
          hintmask 11000000
          -21 -101 rlineto
          endchar
        </CharString>
        <CharString name="dotaccent.alt">
          295 519 101 hstemhm
          207 101 -79 101 hintmask 10100000
          308 519 -73 callgsubr
          hintmask 11000000
          -40 callgsubr
        </CharString>
        <CharString name="dotaccent.cap">
          295 485 101 hstemhm
          200 101 -79 101 hintmask 10100000
          301 485 -73 callgsubr
          hintmask 11000000
          -40 callgsubr
        </CharString>
        <CharString name="dotlessi">
          14 callsubr
          hstem
          84 84 10 84 vstem
          -59 callgsubr
          endchar
        </CharString>
        <CharString name="dotlessj">
          44 callsubr
          hstem
          -63 84 187 84 vstem
          -70 callgsubr
          endchar
        </CharString>
        <CharString name="e">
          -44 callgsubr
          hstem
          -106 callsubr
          endchar
        </CharString>
        <CharString name="eacute">
          -44 callgsubr
          89 -21 167 -20 -99 callsubr
          hintmask 00011000
          95 415 -74 callgsubr
        </CharString>
        <CharString name="ebreve">
          -44 callgsubr
          61 73 109 -20 -99 callsubr
          hintmask 00011000
          127 423 0 callgsubr
        </CharString>
        <CharString name="ecaron">
          -44 callgsubr
          87 102 callsubr
          -99 callsubr
          hintmask 00011000
          101 418 -76 callgsubr
        </CharString>
        <CharString name="ecircumflex">
          -44 callgsubr
          87 102 callsubr
          -99 callsubr
          hintmask 00011000
          65 246 -84 callgsubr
          endchar
        </CharString>
        <CharString name="ecircumflexacute">
          -44 callgsubr
          87 -21 291 -35 callsubr
          107 291 10 callgsubr
        </CharString>
        <CharString name="ecircumflexdotbelow">
          -44 callgsubr
          87 102 callsubr
          hstemhm
          143 101 -79 101 hintmask 11111000
          -106 callsubr
          65 246 -84 callgsubr
          hintmask 00000010
          -200 -725 -73 callgsubr
          hintmask 00000100
          -40 callgsubr
        </CharString>
        <CharString name="ecircumflexgrave">
          -44 callgsubr
          87 -21 134 -35 callsubr
          82 169 rmoveto
          -89 hlineto
          -172 122 rlineto
          111 hlineto
          endchar
        </CharString>
        <CharString name="ecircumflexhookabove">
          -44 callgsubr
          87 -21 361 -35 callsubr
          170 283 -104 callgsubr
        </CharString>
        <CharString name="ecircumflextilde">
          -44 callgsubr
          87 -21 189 66 -7 66 -99 callsubr
          hintmask 00010100
          58 callsubr
          145 314 -26 callsubr
          hintmask 00001000
          -32 -7 -17 -27 -28 hhcurveto
          -25 -22 17 8 -9 -31 callsubr
        </CharString>
        <CharString name="edblgrave">
          -44 callgsubr
          89 -21 167 -20 -99 callsubr
          hintmask 00011000
          61 248 -86 callsubr
        </CharString>
        <CharString name="edieresis">
          -44 callgsubr
          106 91 hstemhm
          227 -8 callgsubr
          -104 callsubr
          hintmask 00010100
          -120 286 50 callsubr
        </CharString>
        <CharString name="edotaccent">
          -44 callgsubr
          101 101 hstemhm
          305 101 -80 101 -104 callsubr
          hintmask 00010100
          -32 281 rmoveto
          21 -55 callsubr
          hintmask 00011000
          -21 -101 rlineto
          endchar
        </CharString>
        <CharString name="edotbelow">
          -44 callgsubr
          hstemhm
          143 101 -79 101 -104 callsubr
          hintmask 00001000
          -194 -479 -49 callgsubr
        </CharString>
        <CharString name="egrave">
          -44 callgsubr
          89 -21 167 -20 -99 callsubr
          hintmask 00011000
          -16 248 -45 callgsubr
        </CharString>
        <CharString name="ehookabove">
          -44 callgsubr
          67 -21 212 -20 -99 callsubr
          hintmask 00011000
          37 360 -104 callgsubr
        </CharString>
        <CharString name="eight">
          531 -21 33 callsubr
          hstem
          525 -85 callgsubr
        </CharString>
        <CharString name="eight.oldstyle">
          600 -21 33 callsubr
          hstem
          201 76 91 76 vstem
          560 -85 callgsubr
        </CharString>
        <CharString name="eight.prop">
          600 -21 33 callsubr
          hstem
          560 -85 callgsubr
        </CharString>
        <CharString name="eight.taboldstyle">
          531 -21 33 callsubr
          hstem
          166 76 91 76 vstem
          525 -85 callgsubr
        </CharString>
        <CharString name="ellipsis">
          668 0 90 hstem
          122 90 96 90 96 90 cntrmask 01110000
          193 hmoveto
          22 callsubr
          276 hmoveto
          22 callsubr
          276 hmoveto
          22 callsubr
          endchar
        </CharString>
        <CharString name="emacron">
          -44 callgsubr
          117 70 -99 callsubr
          hintmask 00010000
          111 297 -74 callsubr
        </CharString>
        <CharString name="emdash">
          1063 241 66 hstemhm
          51 1062 -1048 1062 hintmask 10100000
          1113 241 rmoveto
          14 66 rlineto
          -1062 hlineto
          hintmask 11000000
          -14 -66 rlineto
          endchar
        </CharString>
        <CharString name="emdash.alt">
          708 242 66 hstem
          758 242 rmoveto
          14 66 rlineto
          -707 hlineto
          -14 -66 rlineto
          endchar
        </CharString>
        <CharString name="endash">
          531 241 66 hstemhm
          51 530 -516 530 hintmask 10100000
          581 241 rmoveto
          14 66 rlineto
          -530 hlineto
          hintmask 11000000
          -14 -66 rlineto
          endchar
        </CharString>
        <CharString name="eng">
          549 -207 70 525 66 hstem
          83 121 callgsubr
          vstem
          -90 callgsubr
          -67 -14 -34 -70 -57 hhcurveto
          -15 -70 rlineto
          99 85 100 107 23 hvcurveto
          endchar
        </CharString>
        <CharString name="eogonek">
          76 callgsubr
          -46 callsubr
          endchar
        </CharString>
        <CharString name="eogonekacute">
          76 callgsubr
          89 -21 167 -20 -46 callsubr
          hintmask 00000011
          95 415 -74 callgsubr
        </CharString>
        <CharString name="equal">
          826 118 46 172 46 hstemhm
          89 707 -661 707 hintmask 11010000
          842 359 2 callsubr
          -46 -218 rmoveto
          37 callsubr
          -635 hlineto
          hintmask 10100000
          18 callgsubr
          endchar
        </CharString>
        <CharString name="ereversed">
          -44 callgsubr
          hstem
          488 225 rmoveto
          127 27 -71 107 -122 hhcurveto
          -49 -64 -19 -51 -47 hvcurveto
          -51 -57 -20 -67 -9 -46 rrcurveto
          328 hlineto
          -92 -23 -81 -71 -87 hhcurveto
          -43 -60 13 40 -48 hvcurveto
          -21 -71 rlineto
          -31 44 57 -17 58 hhcurveto
          132 123 107 128 27 hvcurveto
          -73 54 rmoveto
          -260 hlineto
          93 39 70 21 44 hhcurveto
          50 51 -34 -80 6 hvcurveto
          endchar
        </CharString>
        <CharString name="estimated">
          714 -9 66 305 60 222 66 hstem
          665 96 vstem
          761 362 rmoveto
          165 35 -34 183 -234 hhcurveto
          -206 -179 -174 -191 -41 hvcurveto
          -1 -7 rlineto
          -192 -38 130 -155 199 hhcurveto
          89 93 15 26 91 hvcurveto
          9 2 11 1 3 11 4 21 0 21 3 21 -24 -6 -25 -10 -25 -6 rrcurveto
          -20 -74 -75 -10 -73 hhcurveto
          -12 hlineto
          -139 11 -83 121 37 173 rrcurveto
          483 60 rmoveto
          -463 hlineto
          110 50 103 112 137 hhcurveto
          119 73 -93 -129 -19 hvcurveto
          endchar
        </CharString>
        <CharString name="eth">
          -33 callsubr
          hstem
          553 250 rmoveto
          31 145 -35 134 -84 88 76 46 rcurveline
          -25 51 -97 -58 -39 27 -46 19 -52 10 rlinecurve
          -44 -54 40 -9 37 -16 31 -22 rlinecurve
          -78 -48 25 -51 99 60 36 -39 27 -48 14 -55 rlinecurve
          13 -21 -38 16 -47 hhcurveto
          -130 -129 -109 -131 -27 hvcurveto
          -127 -27 84 -102 129 hhcurveto
          60 72 23 55 60 hvcurveto
          73 65 13 61 12 56 rrcurveto
          -92 -25 rmoveto
          -92 -20 -72 -74 -91 hhcurveto
          -78 -58 57 114 24 hvcurveto
          115 24 88 48 70 hhcurveto
          97 34 -82 -86 -18 hvcurveto
          endchar
        </CharString>
        <CharString name="etilde">
          -44 callgsubr
          89 66 -7 66 -99 callsubr
          hintmask 00001000
          117 394 -4 callgsubr
        </CharString>
        <CharString name="eturned">
          -24 callsubr
        </CharString>
        <CharString name="exclam">
          337 0 90 0 90 514 -20 hstemhm
          123 90 -71 90 39 90 hintmask 01101100
          361 694 rmoveto
          -90 hlineto
          -101 -514 rlineto
          72 hlineto
          -29 -180 67 callgsubr
          hintmask 10010000
          -19 -90 rlineto
          endchar
        </CharString>
        <CharString name="exclamdown">
          337 -173 -21 514 -20 110 90 hstemhm
          82 90 38 90 -71 90 hintmask 00100100
          300 410 67 callgsubr
          hintmask 11111000
          -19 -90 rlineto
          -38 -604 rmoveto
          100 514 rlineto
          -72 hlineto
          -118 -514 rlineto
          endchar
        </CharString>
        <CharString name="f">
          -24 callgsubr
        </CharString>
        <CharString name="f_f">
          620 7 callgsubr
          129 84 hintmask 01101000
          501 36 callgsubr
          -104 -91 -74 -99 -21 hvcurveto
          -19 -87 5 callgsubr
          hintmask 11101100
          40 callsubr
          294 hmoveto
          16 73 rlineto
          6 -25 -30 4 -27 hhcurveto
          -104 -91 -74 -99 -21 hvcurveto
          -113 -531 rlineto
          84 hlineto
          40 callsubr
          endchar
        </CharString>
        <CharString name="f_f_i">
          865 21 -21 381 63 161 90 -57 66 hstemhm
          106 84 -3 84 130 84 210 84 -23 84 -51 84 hintmask 0010000010000000
          911 605 rmoveto
          22 callsubr
          -42 -605 rmoveto
          hintmask 1101000101000000
          68 callsubr
          -84 hlineto
          -94 -444 rlineto
          -6 381 109 callgsubr
          -126 hlineto
          25 117 rlineto
          60 13 37 17 30 hhcurveto
          30 21 -12 -6 8 hvcurveto
          hintmask 0010000010000000
          16 75 rlineto
          hintmask 1101011100000000
          7 -23 -6 2 -32 hhcurveto
          -81 -79 -72 -100 -21 hvcurveto
          -113 -532 rlineto
          84 hlineto
          81 381 rlineto
          -95 240 51 callsubr
          hintmask 1000100000000000
          -81 -381 rlineto
          84 hlineto
          hintmask 0101011000000000
          39 callsubr
          endchar
        </CharString>
        <CharString name="f_f_l">
          865 7 callgsubr
          130 84 210 84 64 84 hintmask 01101000
          471 621 51 callsubr
          hintmask 10010000
          -81 -381 rlineto
          84 hlineto
          hintmask 11101111
          39 callsubr
          308 -621 95 callsubr
          -6 -14 callgsubr
          -113 -532 rlineto
          84 hlineto
          81 381 rlineto
          endchar
        </CharString>
        <CharString name="f_i">
          569 21 -21 381 63 161 90 -57 66 hstemhm
          106 84 -3 84 128 84 10 84 hintmask 11100011
          615 605 rmoveto
          22 callsubr
          -42 -605 rmoveto
          68 callsubr
          -84 hlineto
          -94 -444 rlineto
          -5 381 109 callgsubr
          -126 hlineto
          25 117 rlineto
          hintmask 01010110
          64 14 41 13 24 hhcurveto
          17 24 -4 -15 19 hvcurveto
          16 75 rlineto
          1 -3 -26 9 -33 hhcurveto
          -77 -81 -69 -103 -22 hvcurveto
          -19 -88 rlineto
          -77 74 callsubr
          77 hlineto
          hintmask 10001000
          -81 -381 rlineto
          84 hlineto
          hintmask 01000100
          81 381 rlineto
          endchar
        </CharString>
        <CharString name="f_k">
          837 7 callgsubr
          259 78 -58 78 hintmask 01101000
          394 -14 callgsubr
          -19 -88 5 callgsubr
          hintmask 01001100
          81 381 rlineto
          543 -381 rmoveto
          16 callsubr
          hintmask 10000010
          98 457 rlineto
          -78 -76 callsubr
          74 hlineto
          30 140 rlineto
          hintmask 10000100
          85 callgsubr
          endchar
        </CharString>
        <CharString name="f_l">
          569 7 callgsubr
          128 84 64 84 hintmask 01101100
          394 -14 callgsubr
          -19 -88 5 callgsubr
          hintmask 11001110
          81 381 rlineto
          212 -381 95 callsubr
          endchar
        </CharString>
        <CharString name="five">
          531 -21 57 callgsubr
          520 -19 callsubr
        </CharString>
        <CharString name="five.oldstyle">
          595 -215 57 callgsubr
          417 101 vstem
          518 -16 callgsubr
        </CharString>
        <CharString name="five.prop">
          595 -21 57 callgsubr
          559 -19 callsubr
        </CharString>
        <CharString name="five.taboldstyle">
          531 -215 57 callgsubr
          378 101 vstem
          479 -16 callgsubr
        </CharString>
        <CharString name="florin">
          -24 callgsubr
        </CharString>
        <CharString name="four">
          531 21 -21 167 66 423 -20 hstem
          367 79 vstem
          535 8 callgsubr
        </CharString>
        <CharString name="four.oldstyle">
          549 -173 -21 194 66 417 -20 hstemhm
          279 86 -45 86 -65 79 hintmask 01100100
          510 4 callgsubr
        </CharString>
        <CharString name="four.prop">
          549 21 -21 167 66 423 -20 hstem
          377 79 vstem
          545 8 callgsubr
        </CharString>
        <CharString name="four.taboldstyle">
          531 -173 -21 194 66 417 -20 hstemhm
          269 86 -45 86 -65 79 hintmask 01100100
          500 4 callgsubr
        </CharString>
        <CharString name="fraction">
          598 682 674 rmoveto
          46 callsubr
          endchar
        </CharString>
        <CharString name="fraction.alt">
          0 383 674 rmoveto
          46 callsubr
          endchar
        </CharString>
        <CharString name="g">
          -16 callsubr
          -34 callgsubr
          hintmask 0001001001001000
          24 callgsubr
          hintmask 1100110010010000
          -18 -17 -21 -28 -8 -38 -8 -39 11 -25 6 -12 -62 -32 -21 -46 -5 -24 rrcurveto
          -76 -16 92 -60 130 hhcurveto
          131 117 60 76 16 hvcurveto
          141 30 -175 0 -43 hhcurveto
          hintmask 0100001000000000
          -93 hlineto
          -16 -43 0 52 11 hvcurveto
          hintmask 0010010100101000
          5 20 9 10 1 2 rrcurveto
          -22 30 34 -7 27 hhcurveto
          98 89 77 86 19 hvcurveto
          6 32 -2 29 -13 27 rrcurveto
          -2 6 0 2 0 vvcurveto
          4 1 60 0 5 hhcurveto
          0 39 0 35 -4 vhcurveto
          -206 -95 rmoveto
          -78 -17 -55 -24 -43 hhcurveto
          hintmask 1001101000100000
          -54 -33 34 67 15 hvcurveto
          78 16 55 24 43 hhcurveto
          54 33 -34 -67 -14 hvcurveto
          18 -361 rmoveto
          -43 -9 -81 -30 -84 hhcurveto
          -84 -69 30 43 9 hvcurveto
          hintmask 0100000100010000
          5 1 13 59 81 hhcurveto
          96 hlineto
          23 118 0 -64 -14 hvcurveto
          endchar
        </CharString>
        <CharString name="gacute">
          -16 callsubr
          94 -21 167 -20 -34 callgsubr
          hintmask 0001000010010010
          597 386 -103 callsubr
          hintmask 0000110000000000
          116 764 -74 callgsubr
        </CharString>
        <CharString name="gbreve">
          -16 callsubr
          66 73 109 -20 -34 callgsubr
          hintmask 0001000010010010
          597 386 -103 callsubr
          hintmask 0000110000000000
          148 772 0 callgsubr
        </CharString>
        <CharString name="gcaron">
          -16 callsubr
          92 102 callsubr
          -34 callgsubr
          hintmask 0001000010010010
          597 386 -103 callsubr
          hintmask 0000110000100000
          122 767 -76 callgsubr
        </CharString>
        <CharString name="gcedilla">
          -16 callsubr
          80 81 115 -20 -34 callgsubr
          hintmask 0001110010010010
          424 730 rmoveto
          -40 hlineto
          -66 -116 -17 -80 rlineto
          81 hlineto
          17 81 rlineto
          -25 hlineto
          223 -229 -103 callsubr
          endchar
        </CharString>
        <CharString name="gcircumflex">
          -16 callsubr
          92 102 callsubr
          -34 callgsubr
          hintmask 0001000010010010
          597 386 -103 callsubr
          hintmask 0000110000000000
          86 595 -84 callgsubr
          endchar
        </CharString>
        <CharString name="gcommaaccent">
          -16 callsubr
          80 81 115 -20 -34 callgsubr
          hintmask 0001110010010010
          424 730 rmoveto
          -40 hlineto
          -66 -116 -17 -80 rlineto
          81 hlineto
          17 81 rlineto
          -25 hlineto
          223 -229 -103 callsubr
          endchar
        </CharString>
        <CharString name="gdotaccent">
          -16 callsubr
          106 101 hstemhm
          15 76 3 77 -44 77 -18 76 -41 76 -1 101 -80 101 -86 77 -18 77 -59 76 38 76 hintmask 0001000100001001
          24 callgsubr
          hintmask 1100011001000010
          -18 -17 -21 -28 -8 -38 -8 -39 11 -25 6 -12 -62 -32 -21 -46 -5 -24 rrcurveto
          -76 -16 92 -60 130 hhcurveto
          131 117 60 76 16 hvcurveto
          141 30 -175 0 -43 hhcurveto
          hintmask 0100000100000000
          -93 hlineto
          -16 -43 0 52 11 hvcurveto
          hintmask 0010001010000101
          5 20 9 10 1 2 rrcurveto
          -22 30 34 -7 27 hhcurveto
          98 89 77 86 19 hvcurveto
          6 32 -2 29 -13 27 rrcurveto
          -2 6 0 2 0 vvcurveto
          4 1 60 0 5 hhcurveto
          0 39 0 35 -4 vhcurveto
          -206 -95 rmoveto
          -78 -17 -55 -24 -43 hhcurveto
          hintmask 1001010100000100
          -54 -33 34 67 15 hvcurveto
          78 16 55 24 43 hhcurveto
          54 33 -34 -67 -14 hvcurveto
          18 -361 rmoveto
          -43 -9 -81 -30 -84 hhcurveto
          -84 -69 30 43 9 hvcurveto
          hintmask 0100000010000010
          5 1 13 59 81 hhcurveto
          96 hlineto
          23 118 0 -64 -14 hvcurveto
          hintmask 0000100000010000
          -12 630 rmoveto
          21 -55 callsubr
          hintmask 0000100000100000
          -21 -101 rlineto
          endchar
        </CharString>
        <CharString name="germandbls">
          -51 callgsubr
        </CharString>
        <CharString name="germandbls.dup">
          -51 callgsubr
        </CharString>
        <CharString name="gnaborretni">
          502 320 90 0 90 hstemhm
          151 72 -66 72 -48 87 -26 87 -61 72 hintmask 01000100
          368 410 rmoveto
          22 callsubr
          132 -562 rmoveto
          -10 68 -64 -34 -52 -14 -42 -4 rlinecurve
          67 339 9 22 6 21 5 23 rlinecurve
          hintmask 10010010
          51 callgsubr
          24 -23 31 -9 27 -3 rrcurveto
          hintmask 00100000
          -6 -27 rlineto
          72 hlineto
          hintmask 00010000
          6 26 53 5 62 15 66 31 rlinecurve
          -194 210 rmoveto
          -44 -193 -33 8 -15 22 11 54 rlinecurve
          hintmask 00001000
          10 45 18 15 18 15 12 10 12 11 11 13 rrcurveto
          endchar
        </CharString>
        <CharString name="grave">
          531 548 32 callgsubr
          452 527 -45 callgsubr
        </CharString>
        <CharString name="grave.cap">
          531 516 121 callsubr
          hstem
          466 495 -65 callgsubr
        </CharString>
        <CharString name="grave.ts1">
          531 556 -21 178 -20 hstem
          427 535 rmoveto
          -102 177 -26 1 rlineto
          -59 hlineto
          122 -178 rlineto
          endchar
        </CharString>
        <CharString name="greater">
          826 -43 -21 628 -20 hstem
          790 250 rmoveto
          3 13 -8 6 -11 6 -527 282 rcurveline
          7 -11 -2 0 -3 hhcurveto
          -13 -12 -10 -13 -3 hvcurveto
          -3 -13 8 -6 11 -6 495 -266 rcurveline
          -608 -266 -14 -6 -10 -6 -3 -13 rlinecurve
          -13 -2 7 -10 13 hhcurveto
          3 2 0 7 15 hvcurveto
          647 282 13 6 10 6 3 13 rlinecurve
          endchar
        </CharString>
        <CharString name="guarani">
          708 -21 69 185 66 347 69 hstemhm
          142 101 26 70 18 70 0 70 -36 70 -19 87 0 101 hintmask 1110001001000000
          642 28 rmoveto
          58 271 rlineto
          -223 hlineto
          -14 -66 rlineto
          136 hlineto
          -36 -165 rlineto
          -20 -71 -56 0 -9 hhcurveto
          -20 -17 3 4 -17 hvcurveto
          124 584 rlineto
          4 19 18 3 20 hhcurveto
          68 59 -17 -53 52 hvcurveto
          35 89 rlineto
          39 -66 -67 11 -66 hhcurveto
          hintmask 0000000010000000
          -19 -19 -2 -3 -19 hvcurveto
          hintmask 1001110100000000
          19 89 rlineto
          -70 hlineto
          -23 -108 -147 -54 -117 -138 -32 -152 rlinecurve
          -33 -154 60 -137 123 -53 -23 -108 rcurveline
          70 hlineto
          18 88 rlineto
          -2 18 18 -2 19 hhcurveto
          62 81 13 36 87 hvcurveto
          -332 60 rmoveto
          -64 53 -26 99 23 107 22 107 69 99 86 53 rrcurveto
          endchar
        </CharString>
        <CharString name="guillemotleft">
          531 21 -21 438 -20 hstem
          295 26 callsubr
          242 26 callsubr
          endchar
        </CharString>
        <CharString name="guillemotright">
          531 21 -21 438 -20 hstem
          460 26 callgsubr
          -18 26 callgsubr
          endchar
        </CharString>
        <CharString name="guilsinglleft">
          354 21 -21 438 -20 hstem
          295 26 callsubr
          endchar
        </CharString>
        <CharString name="guilsinglright">
          354 21 -21 438 -20 hstem
          283 26 callgsubr
          endchar
        </CharString>
        <CharString name="h">
          15 callgsubr
          240 -20 hstem
          83 87 61 84 63 87 vstem
          -77 callsubr
          endchar
        </CharString>
        <CharString name="h_uni0303">
          15 callgsubr
          240 -20 61 68 callgsubr
          83 87 61 84 63 87 hintmask 11100111
          -77 callsubr
          hintmask 00001000
          256 860 -48 callsubr
        </CharString>
        <CharString name="hbar">
          15 callgsubr
          80 70 90 -20 hstemhm
          83 87 27 84 -70 84 -64 84 0 87 -24 87 hintmask 0110010010000000
          -13 callsubr
          -86 -56 -50 -21 -25 hvcurveto
          33 151 rlineto
          107 hlineto
          14 70 rlineto
          hintmask 0011001010000000
          -107 hlineto
          20 90 rlineto
          hintmask 0001000100000000
          -84 hlineto
          hintmask 0010001000000000
          -20 -90 rlineto
          -86 hlineto
          -14 -70 rlineto
          hintmask 1110110001000000
          86 hlineto
          -114 -534 -87 callsubr
          endchar
        </CharString>
        <CharString name="hbrevebelow">
          549 108 callgsubr
          99 91 callgsubr
          240 -20 hstemhm
          83 87 61 84 63 87 hintmask 00111111
          -77 callsubr
          hintmask 11000000
          64 -58 -98 callsubr
          -53 callsubr
          26 hvcurveto
          endchar
        </CharString>
        <CharString name="hcircumflex">
          15 callgsubr
          240 -20 82 -21 134 -20 hstemhm
          83 87 61 84 63 87 hintmask 11100111
          -77 callsubr
          hintmask 00011000
          209 -2 callgsubr
        </CharString>
        <CharString name="hdieresis">
          15 callgsubr
          240 -20 61 91 hstemhm
          83 87 61 84 -28 -10 callgsubr
          -19 87 19 -10 callgsubr
          hintmask 1110110010000000
          -77 callsubr
          hintmask 0001000100000000
          735 vmoveto
          -72 callgsubr
          hintmask 0001001000100000
          -61 callsubr
          hintmask 0001000001000000
          -11 callsubr
          endchar
        </CharString>
        <CharString name="hdotbelow">
          15 callgsubr
          240 -20 hstemhm
          83 87 10 101 -79 101 -72 84 63 87 hintmask 11110011
          -77 callsubr
          hintmask 00000100
          -97 99 callgsubr
          hintmask 00001000
          -40 callgsubr
        </CharString>
        <CharString name="hungarumlaut">
          531 548 32 callgsubr
          412 694 -56 callgsubr
        </CharString>
        <CharString name="hungarumlaut.cap">
          531 516 32 callgsubr
          405 662 -56 callgsubr
        </CharString>
        <CharString name="hungarumlaut.ts1">
          531 555 -21 179 -20 hstem
          417 713 103 callsubr
          301 179 103 callsubr
          endchar
        </CharString>
        <CharString name="hyphen">
          -1 callsubr
        </CharString>
        <CharString name="hyphen.alt">
          177 191 63 hstem
          333 191 109 callgsubr
          -280 74 callsubr
          endchar
        </CharString>
        <CharString name="hyphen.dup">
          -1 callsubr
        </CharString>
        <CharString name="hyphen.prop">
          354 302 63 hstem
          114 282 vstem
          382 302 rmoveto
          14 63 rlineto
          -282 hlineto
          -14 -63 rlineto
          endchar
        </CharString>
        <CharString name="hyphendbl">
          354 83 63 155 63 hstem
          358 301 109 callgsubr
          -282 74 callsubr
          236 -218 109 callgsubr
          -282 74 callsubr
          endchar
        </CharString>
        <CharString name="hyphendbl.alt">
          177 83 63 155 63 hstem
          356 301 109 callgsubr
          -280 74 callsubr
          234 -218 109 callgsubr
          -280 74 callsubr
          endchar
        </CharString>
        <CharString name="i">
          14 callsubr
          136 101 hstemhm
          84 84 10 84 -67 101 -80 101 hintmask 11011000
          -59 callgsubr
          hintmask 00100010
          212 560 rmoveto
          21 -55 callsubr
          hintmask 00100100
          -21 -101 rlineto
          endchar
        </CharString>
        <CharString name="i_j">
          511 -204 70 694 101 hstemhm
          84 84 10 84 -68 101 -80 101 120 84 -76 101 -80 101 hintmask 0100010000000000
          295 560 rmoveto
          21 -55 callsubr
          hintmask 0100100010000000
          -21 -101 rlineto
          351 hmoveto
          21 -55 callsubr
          hintmask 0111000100000000
          -21 -101 rlineto
          -276 -560 rmoveto
          68 callsubr
          -84 hlineto
          -94 -444 rlineto
          329 -59 rmoveto
          hintmask 1000001000000000
          107 503 rlineto
          -84 hlineto
          -108 -510 -4 -18 -3 -16 -25 -17 rlinecurve
          -17 -26 -28 0 -9 hhcurveto
          -42 -22 19 11 -10 hvcurveto
          -32 -66 rlineto
          -25 41 43 -9 38 hhcurveto
          69 76 53 92 19 hvcurveto
          endchar
        </CharString>
        <CharString name="iacute">
          14 callsubr
          124 42 callgsubr
          84 84 10 84 hintmask 11001100
          -59 callgsubr
          hintmask 00110100
          372 694 -74 callgsubr
        </CharString>
        <CharString name="ibreve">
          14 callsubr
          96 73 109 -20 hstemhm
          84 84 10 84 hintmask 11001100
          -59 callgsubr
          hintmask 00110000
          372 -68 callgsubr
          endchar
        </CharString>
        <CharString name="icaron">
          14 callsubr
          122 102 callsubr
          hstemhm
          84 84 10 84 hintmask 11001100
          -59 callgsubr
          hintmask 00110000
          346 697 -76 callgsubr
        </CharString>
        <CharString name="icircumflex">
          14 callsubr
          122 102 callsubr
          hstemhm
          84 84 10 84 hintmask 11001100
          -59 callgsubr
          hintmask 00111000
          310 525 -84 callgsubr
          endchar
        </CharString>
        <CharString name="idblgrave">
          14 callsubr
          124 42 callgsubr
          84 84 10 84 hintmask 11001100
          -59 callgsubr
          hintmask 00110000
          306 527 -86 callsubr
        </CharString>
        <CharString name="idieresis">
          14 callsubr
          141 91 hstemhm
          84 84 -50 -10 callgsubr
          -50 84 23 -10 callgsubr
          hintmask 1101001000000000
          -59 callgsubr
          hintmask 0010010000000000
          125 11 callsubr
          hintmask 0010100010000000
          -56 callsubr
          hintmask 0010000100000000
          -11 callsubr
          endchar
        </CharString>
        <CharString name="idieresisacute">
          14 callsubr
          141 91 67 callsubr
          84 84 -50 -10 callgsubr
          -50 84 23 -10 callgsubr
          hintmask 1100010010000000
          -59 callgsubr
          hintmask 0010000100000000
          125 11 callsubr
          hintmask 0010001000100000
          -56 callsubr
          hintmask 0011100001000000
          -11 callsubr
          208 264 -90 callsubr
        </CharString>
        <CharString name="idotbelow">
          14 callsubr
          136 101 hstemhm
          33 101 -79 101 -72 84 10 84 -67 101 -80 101 hintmask 1100011000000000
          -59 callgsubr
          212 560 rmoveto
          hintmask 0010000010000000
          21 -55 callsubr
          hintmask 0010000100000000
          -21 -101 rlineto
          hintmask 0000100000000000
          -61 -760 -73 callgsubr
          hintmask 0001000000000000
          -40 callgsubr
        </CharString>
        <CharString name="igrave">
          14 callsubr
          124 42 callgsubr
          84 84 10 84 hintmask 11001100
          -59 callgsubr
          hintmask 00110000
          196 527 -45 callgsubr
        </CharString>
        <CharString name="ihookabove">
          14 callsubr
          102 -21 212 -20 hstemhm
          84 84 10 84 hintmask 11001100
          -59 callgsubr
          hintmask 00110100
          282 639 -104 callgsubr
        </CharString>
        <CharString name="imacron">
          14 callsubr
          152 70 hstemhm
          84 84 10 84 hintmask 11011000
          -59 callgsubr
          hintmask 00100000
          356 576 -74 callsubr
        </CharString>
        <CharString name="imacron.alt">
          14 callsubr
          152 70 hstemhm
          84 84 10 84 hintmask 11011000
          -59 callgsubr
          hintmask 00100000
          267 576 9 callsubr
        </CharString>
</ttFont>
